<svg width="69.85mm" height="96.043mm" version="1.1" viewBox="2.3 0 69.850001 96.043427">
<g stroke-width=".26458" style="font-feature-settings:normal;font-variant-caps:normal;font-variant-ligatures:normal;font-variant-numeric:normal" aria-label="walk">
<path d="m45.694 84.666h1.49v7.1917l2.9456-3.1178h1.9379l-3.0748 3.2815 3.1092 3.8241h-1.8518l-3.0662-3.7552v3.7552h-1.49zm-3.5571 0h1.4986v11.179h-1.4986zm-3.9791 4.0739h1.4986v7.1056h-1.4986v-1.4125q-1.0938 1.6106-2.713 1.6106-1.4039 0-2.403-1.1024-0.99047-1.1024-0.99047-2.6786 0-1.49 0.99908-2.6011 1.0077-1.1197 2.3599-1.1197 0.83544 0 1.5848 0.45648t1.1627 1.1886zm0.19809 3.5743q0-0.97325-0.69764-1.6623-0.69764-0.69764-1.6709-0.69764-0.94741 0-1.6537 0.68902t-0.70625 1.6192q0 1.0077 0.68902 1.7139 0.68902 0.70625 1.6709 0.70625 0.97325 0 1.6709-0.69764 0.69764-0.70625 0.69764-1.6709zm-12.42-3.8758 1.9896 4.7112 2.1015-4.4098h1.3091l-3.4968 7.3036-1.9034-4.5217-1.9034 4.4614-3.4796-7.2434h1.3091l2.1015 4.3581zm26.46-43.257c-4.3913-2.542-7.9944-5.9756-11.027-10.015-1.9058-2.6802-6.9446-2.5402-8.9921-0.084298-3.1147 3.0304-5.7575 6.1537-7.8536 9.2788-0.85688 1.2801-0.51622 3.0121 0.76303 3.869 0.47711 0.31981 1.0151 0.47276 1.5495 0.47276 0.8986 0 1.7816-0.43366 2.3186-1.2367 0.92032-1.3705 1.9641-2.7453 3.1199-4.1141-0.04432 2.8965 0.10081 8.123 0.17381 10.472 0.02433 0.78214-0.15382 1.5469-0.51708 2.2413-2.8748 5.4898-4.7137 10.684-6.5804 17.039-0.45712 1.5513 0.43192 3.179 1.9823 3.6352 0.3511 0.10342 0.70567 0.13818 1.0481 0.11211 1.1802-0.09038 2.2352-0.89425 2.588-2.0953 1.7225-5.8591 3.3867-10.603 5.9825-15.626 0.1321 0.0052 0.26419 0.0052 0.39802-8.69e-4 1.6573 4.9449 3.3154 9.8924 4.9753 14.837 1.2054 3.604 6.7977 1.732 5.5889-1.8728-1.8137-5.4064-3.6248-10.81-5.4324-16.216-0.10516-0.31025-0.35979-1.5252-0.39542-1.9215-0.29895-3.3302-0.40758-6.65-0.37543-9.9741 2.5446 2.4377 5.3664 4.5521 8.501 6.3684 3.126 1.8146 5.269-3.3815 2.1848-5.1691zm-9.3405-18.527a5.3325 5.3325 0 0 1 -5.3325 5.3325 5.3325 5.3325 0 0 1 -5.3325 -5.3325 5.3325 5.3325 0 0 1 5.3325 -5.3325 5.3325 5.3325 0 0 1 5.3325 5.3325z" stroke-width=".26458" style="font-feature-settings:normal;font-variant-caps:normal;font-variant-ligatures:normal;font-variant-numeric:normal"/>
</g>
</svg>
