<?xml version="1.0" encoding="UTF-8" standalone="no"?>
<svg
   xmlns:dc="http://purl.org/dc/elements/1.1/"
   xmlns:cc="http://creativecommons.org/ns#"
   xmlns:rdf="http://www.w3.org/1999/02/22-rdf-syntax-ns#"
   xmlns:svg="http://www.w3.org/2000/svg"
   xmlns="http://www.w3.org/2000/svg"
   xmlns:sodipodi="http://sodipodi.sourceforge.net/DTD/sodipodi-0.dtd"
   xmlns:inkscape="http://www.inkscape.org/namespaces/inkscape"
   inkscape:version="1.0beta2 (2b71d25, 2019-12-03)"
   id="svg8"
   version="1.1"
   viewBox="0 0 188.09694 127.77625"
   height="127.77625mm"
   width="188.09694mm">
  <defs
     id="defs2" />
  <sodipodi:namedview
     inkscape:window-maximized="0"
     inkscape:window-y="23"
     inkscape:window-x="0"
     inkscape:window-height="855"
     inkscape:window-width="1440"
     fit-margin-bottom="0"
     fit-margin-right="0"
     fit-margin-left="0"
     fit-margin-top="0"
     showgrid="false"
     inkscape:document-rotation="0"
     inkscape:current-layer="layer1"
     inkscape:document-units="mm"
     inkscape:cy="489.56681"
     inkscape:cx="-67.505526"
     inkscape:zoom="0.4142569"
     inkscape:pageshadow="2"
     inkscape:pageopacity="0.0"
     borderopacity="1.0"
     bordercolor="#666666"
     pagecolor="#ffffff"
     id="base" />
  <metadata
     id="metadata5">
    <rdf:RDF>
      <cc:Work
         rdf:about="">
        <dc:format>image/svg+xml</dc:format>
        <dc:type
           rdf:resource="http://purl.org/dc/dcmitype/StillImage" />
        <dc:title></dc:title>
      </cc:Work>
    </rdf:RDF>
  </metadata>
  <g
     transform="translate(-11.408762,-18.968782)"
     id="layer1"
     inkscape:groupmode="layer"
     inkscape:label="Layer 1">
    <g
       transform="matrix(0.11302292,0,0,0.11302292,11.39486,91.49513)"
       id="g4850">
      <g
         id="g4785">
	<g
   id="_x31_4_26_">
		<g
   id="g4782">
			<path
   inkscape:connector-curvature="0"
   d="m 264.32,39.487 c 5.529,-7.328 4.64,-22.871 3.853,-36.582 C 268.143,2.314 268.11,1.736 268.077,1.149 260.327,0.409 252.482,0 244.542,0 c -30.425,0 -59.537,5.605 -86.406,15.766 19.167,9.211 48.836,25.065 81.814,48.49 11.252,-9.683 19.738,-18.622 24.37,-24.769 z"
   id="path4766" />

			<path
   inkscape:connector-curvature="0"
   d="m 388.163,178.955 c -12.047,1.361 -22.207,3.338 -30.896,6.111 41.537,72.522 57.732,164.145 61.695,230.522 41.15,-41.928 67.283,-98.609 69.754,-161.393 -28.354,-34.852 -65.916,-79.169 -100.553,-75.24 z"
   id="path4768" />

			<path
   inkscape:connector-curvature="0"
   d="M 141.232,116.356 C 170.417,110.283 197.836,95.594 219.698,80.089 174.09,48.677 136.05,32.375 128.483,29.272 81.166,54.851 43.302,95.606 21.274,144.987 c 28.632,-11.408 59.641,-17.212 90.098,-22.867 9.853,-1.83 20.038,-3.721 29.86,-5.764 z"
   id="path4770" />

			<path
   inkscape:connector-curvature="0"
   d="m 310.171,123.463 c 2.605,2.618 5.203,5.281 7.783,7.994 9.521,9.995 18.16,20.927 26.082,32.493 11.537,-4.356 25.119,-7.445 41.377,-9.283 38.307,-4.333 72.369,26.012 101.604,59.42 -6.268,-50.645 -27.989,-96.482 -60.354,-132.631 -17.666,2.129 -37.361,5.736 -57.435,11.726 -13.168,3.933 -34.139,14.619 -59.057,30.281 z"
   id="path4772" />

			<path
   inkscape:connector-curvature="0"
   d="m 278.011,249.688 c 10.025,-33.955 21.637,-58.432 44.135,-74.32 -6.752,-9.693 -14.018,-18.79 -21.889,-27.054 -3.641,-3.824 -7.323,-7.517 -11.021,-11.145 -90.263,61.439 -213.906,174.3 -225.149,272.086 37.53,41.062 88.892,69.222 146.712,77.211 21.053,-41.915 40.868,-127.124 52.646,-177.801 5.659,-24.341 10.543,-45.358 14.566,-58.977 z"
   id="path4774" />

			<path
   inkscape:connector-curvature="0"
   d="m 175.668,195.843 c 31.472,-29.001 64.708,-55.007 95.107,-75.908 -10.133,-8.965 -20.297,-17.229 -30.275,-24.808 -25.249,18.98 -58.307,37.674 -94.291,45.158 -10.077,2.097 -20.396,4.014 -30.372,5.866 -38.438,7.138 -75.336,14.051 -106.366,31.364 -6.043,21.271 -9.348,43.697 -9.348,66.905 0,51.917 16.238,100.02 43.839,139.604 17.881,-70.797 79.213,-139.81 131.706,-188.181 z"
   id="path4776" />

			<path
   inkscape:connector-curvature="0"
   d="m 291.829,105.975 c 29.078,-18.538 54.147,-31.356 70.412,-36.211 14.606,-4.362 28.934,-7.539 42.502,-9.856 C 373.39,32.663 335.065,13.245 292.757,4.781 c 0.938,17.07 1.347,35.811 -8.922,49.427 -4.879,6.466 -13.133,15.334 -23.873,24.955 10.518,8.187 21.207,17.115 31.867,26.812 z"
   id="path4778" />

			<path
   inkscape:connector-curvature="0"
   d="m 301.45,256.609 c -3.816,12.928 -8.63,33.625 -14.199,57.588 -16.444,70.755 -32.179,134.067 -50.555,174.442 2.609,0.083 5.217,0.199 7.846,0.199 56.963,0 109.328,-19.539 150.885,-52.206 -1.641,-69.461 -18.293,-167.71 -60.238,-240.643 -16.268,12.091 -25.024,31.112 -33.739,60.62 z"
   id="path4780" />

		</g>

	</g>

</g>
      <g
         id="g4787">
</g>
      <g
         id="g4789">
</g>
      <g
         id="g4791">
</g>
      <g
         id="g4793">
</g>
      <g
         id="g4795">
</g>
      <g
         id="g4797">
</g>
      <g
         id="g4799">
</g>
      <g
         id="g4801">
</g>
      <g
         id="g4803">
</g>
      <g
         id="g4805">
</g>
      <g
         id="g4807">
</g>
      <g
         id="g4809">
</g>
      <g
         id="g4811">
</g>
      <g
         id="g4813">
</g>
      <g
         id="g4815">
</g>
    </g>
    <g
       transform="matrix(0.10865206,0,0,0.10865206,81.220959,18.968809)"
       id="g4949">
      <g
         id="g4856">
	<g
   id="g4854">
		<path
   inkscape:connector-curvature="0"
   d="M 503.058,157.279 460.72,114.941 492.547,83.126 c 2.814,-2.811 4.396,-6.62 4.396,-10.604 0,-3.984 -1.582,-7.793 -4.395,-10.605 L 449.936,19.305 c -5.625,-5.625 -15.586,-5.625 -21.211,0 L 396.91,51.132 354.566,8.786 c -11.715,-11.715 -30.71,-11.715 -42.426,0 -11.717,11.715 -11.717,30.71 0,42.426 l 148.491,148.493 c 11.717,11.715 30.712,11.715 42.427,0 11.715,-11.715 11.715,-30.71 0,-42.426 z"
   id="path4852" />

	</g>

</g>
      <g
         id="g4862">
	<g
   id="g4860">
		<path
   inkscape:connector-curvature="0"
   d="M 199.86,460.786 51.369,312.293 c -11.717,-11.715 -30.71,-11.715 -42.427,0 -11.715,11.717 -11.715,30.712 0,42.427 l 42.345,42.345 -31.765,31.752 c -2.813,2.813 -4.395,6.621 -4.395,10.605 0,3.984 1.582,7.793 4.395,10.605 l 42.612,42.598 c 2.929,2.931 6.767,4.396 10.605,4.396 3.838,0 7.676,-1.465 10.605,-4.395 l 31.752,-31.752 42.338,42.339 c 11.715,11.715 30.71,11.715 42.426,0 11.717,-11.717 11.717,-30.712 0,-42.427 z"
   id="path4858" />

	</g>

</g>
      <g
         id="g4868">
	<g
   id="g4866">
		<polygon
   points="178.647,269.868 242.287,333.508 333.353,242.13 269.713,178.492 "
   id="polygon4864" />

	</g>

</g>
      <g
         id="g4874">
	<g
   id="g4872">
		<path
   inkscape:connector-curvature="0"
   d="M 460.632,242.131 269.713,51.212 c -11.715,-11.715 -30.711,-11.715 -42.426,0 -11.717,11.717 -11.717,30.71 0,42.427 l 190.919,190.919 c 11.715,11.715 30.71,11.715 42.426,0 11.717,-11.715 11.717,-30.71 0,-42.427 z"
   id="path4870" />

	</g>

</g>
      <g
         id="g4880">
	<g
   id="g4878">
		<path
   inkscape:connector-curvature="0"
   d="M 284.714,418.36 93.794,227.44 c -11.715,-11.715 -30.71,-11.715 -42.425,0 -11.717,11.717 -11.717,30.712 0,42.427 l 190.919,190.919 c 11.715,11.715 30.71,11.715 42.426,0 11.717,-11.715 11.717,-30.71 0,-42.426 z"
   id="path4876" />

	</g>

</g>
      <g
         id="g4882">
</g>
      <g
         id="g4884">
</g>
      <g
         id="g4886">
</g>
      <g
         id="g4888">
</g>
      <g
         id="g4890">
</g>
      <g
         id="g4892">
</g>
      <g
         id="g4894">
</g>
      <g
         id="g4896">
</g>
      <g
         id="g4898">
</g>
      <g
         id="g4900">
</g>
      <g
         id="g4902">
</g>
      <g
         id="g4904">
</g>
      <g
         id="g4906">
</g>
      <g
         id="g4908">
</g>
      <g
         id="g4910">
</g>
    </g>
    <g
       transform="matrix(0.09618676,0,0,0.09618676,150.26952,22.800945)"
       id="g4967">
      <path
         inkscape:connector-curvature="0"
         d="m 415.421,191.713 h 33.23 v 192.815 c 0,17.685 -14.388,32.073 -32.073,32.073 h -58.655 v -52.009 c 0,-34.227 -27.846,-62.073 -62.073,-62.073 -34.227,0 -62.073,27.846 -62.073,62.073 v 19.937 c 0,34.227 27.846,62.073 62.073,62.073 h 32.073 v 3.277 c 0,17.685 -14.388,32.073 -32.073,32.073 H 95.374 c -17.685,0 -32.073,-14.388 -32.073,-32.073 V 241.186 h 33.23 V 185.803 H 0.071 v 55.383 h 33.23 v 208.692 c 0,34.227 27.846,62.073 62.073,62.073 H 295.85 c 34.227,0 62.073,-27.846 62.073,-62.073 v -3.277 h 58.655 c 34.228,0 62.073,-27.846 62.073,-62.073 V 191.713 h 33.23 V 136.33 h -96.46 z M 327.923,416.602 H 295.85 c -17.685,0 -32.073,-14.388 -32.073,-32.073 v -19.937 c 0,-17.685 14.388,-32.073 32.073,-32.073 17.685,0 32.073,14.388 32.073,32.073 z"
         id="path4951" />
      <path
         inkscape:connector-curvature="0"
         d="M 511.881,48.23 C 511.881,21.636 490.245,0 463.651,0 c -26.594,0 -48.23,21.636 -48.23,48.23 v 58.1 h 96.46 z"
         id="path4953" />
      <path
         inkscape:connector-curvature="0"
         d="m 96.531,97.703 c 0,-26.594 -21.636,-48.23 -48.23,-48.23 -26.594,0 -48.23,21.636 -48.23,48.23 v 58.1 h 96.46 z"
         id="path4955" />
    </g>
    <g
       transform="matrix(1.7527711,0,0,1.7527711,140.41976,91.781632)"
       id="g5027">
      <g
         id="g4971">
	<path
   inkscape:connector-curvature="0"
   d="m 18.877836,0 c 5.424,0 10.764,2.498 10.764,8.473 0,5.51 -6.314,7.629 -7.67,9.62 -1.018,1.481 -0.678,3.562 -3.475,3.562 -1.822,0 -2.712,-1.482 -2.712,-2.838 0,-5.046 7.414,-6.188 7.414,-10.343 0,-2.287 -1.522,-3.643 -4.066,-3.643 -5.424,0 -3.306,5.592 -7.414001,5.592 -1.483,0 -2.7560002,-0.89 -2.7560002,-2.584 C 8.9618348,3.683 13.706836,0 18.877836,0 Z m -0.211,24.406 c 1.904,0 3.475,1.566 3.475,3.476 0,1.91 -1.568,3.476 -3.475,3.476 -1.907,0 -3.476,-1.564 -3.476,-3.476 0,-1.909 1.569,-3.476 3.476,-3.476 z"
   id="path4969" />

</g>
      <g
         id="g4973">
</g>
      <g
         id="g4975">
</g>
      <g
         id="g4977">
</g>
      <g
         id="g4979">
</g>
      <g
         id="g4981">
</g>
      <g
         id="g4983">
</g>
      <g
         id="g4985">
</g>
      <g
         id="g4987">
</g>
      <g
         id="g4989">
</g>
      <g
         id="g4991">
</g>
      <g
         id="g4993">
</g>
      <g
         id="g4995">
</g>
      <g
         id="g4997">
</g>
      <g
         id="g4999">
</g>
      <g
         id="g5001">
</g>
    </g>
    <g
       transform="matrix(0.10750833,0,0,0.10750833,11.497793,18.968782)"
       id="g5054">
      <path
         inkscape:connector-curvature="0"
         d="m 291.1,264.612 c 36.196,-0.021 66.005,-29.383 66.005,-65.986 -0.021,-36.346 -29.638,-65.901 -66.031,-65.908 L 269.803,47.585 275.626,32 h 15.434 c 8.837,0 16,-7.163 16,-16 0,-8.837 -7.163,-16 -16,-16 h -26.536 c -6.677,0 -12.651,4.146 -14.988,10.4 L 241.204,32.702 147.359,51.509 146.47,36.3 c -0.494,-8.459 -7.499,-15.066 -15.973,-15.066 h -25.153 c -8.837,0 -16,7.163 -16,16 0,8.837 7.163,16 16,16 h 10.061 l 0.834,14.278 -33.125,66.838 c -41.401,-9.01 -80.142,22.549 -80.116,64.464 0.021,36.189 29.469,65.908 66.083,65.908 42.076,-0.025 73.809,-39.16 64.339,-80.617 58.009,-29.391 56.364,-27.917 59.362,-31.859 l 52.847,-69.409 14.388,57.587 c -20.778,11.077 -35.015,32.926 -35.001,58.281 0.021,36.192 29.472,65.907 66.084,65.907 z M 118.895,155.591 c -2.19,-2.518 -4.565,-4.87 -7.109,-7.032 l 22.685,-45.772 22.303,33.62 z m 62.053,-40.628 -21.987,-33.142 55.722,-11.167 z"
         id="path5029" />
      <path
         inkscape:connector-curvature="0"
         d="m 432.701,294.118 c 30.244,0 54.85,-24.571 54.85,-54.774 0,-30.203 -24.605,-54.774 -54.85,-54.774 -30.245,0 -54.85,24.571 -54.85,54.774 0,30.203 24.606,54.774 54.85,54.774 z"
         id="path5031" />
      <path
         inkscape:connector-curvature="0"
         d="m 508.489,334.639 c -2.211,-8.556 -10.938,-13.695 -19.495,-11.487 l -54.135,13.991 c -29.953,-44.867 -28.908,-44.941 -34.86,-47.421 l -37.968,-15.801 c -3.802,-1.583 -8.068,-1.638 -11.909,-0.155 l -69.806,26.945 c -8.244,3.183 -12.347,12.444 -9.165,20.688 3.193,8.272 12.468,12.336 20.688,9.165 l 63.82,-24.635 14.585,6.07 -107.466,171.147 c -4.699,7.483 -2.442,17.36 5.041,22.059 7.466,4.689 17.35,2.458 22.059,-5.041 l 49.153,-78.278 39.335,18.298 -33.36,46.488 c -5.152,7.179 -3.509,17.176 3.671,22.327 7.146,5.13 17.154,3.54 22.327,-3.671 l 44.62,-62.178 c 5.843,-8.139 2.84,-19.608 -6.251,-23.835 l -53.191,-24.743 38.075,-60.636 20.289,30.42 c 3.776,5.663 10.724,8.314 17.314,6.613 l 65.142,-16.836 c 8.556,-2.21 13.698,-10.939 11.487,-19.494 z"
         id="path5033" />
      <path
         inkscape:connector-curvature="0"
         d="m 205.709,328.794 c -16.158,0 -25.118,5.455 -31.661,9.438 -5.054,3.077 -7.837,4.771 -15.02,4.771 -7.184,0 -9.967,-1.695 -15.021,-4.771 -6.543,-3.983 -15.503,-9.438 -31.66,-9.438 -16.156,0 -25.116,5.455 -31.658,9.439 -5.052,3.076 -7.835,4.771 -15.016,4.771 -7.181,0 -9.964,-1.694 -15.017,-4.771 -6.543,-3.983 -15.502,-9.438 -31.659,-9.438 -8.837,0 -16,7.163 -16,16 0,8.837 7.163,16 16,16 7.182,0 9.964,1.694 15.017,4.771 6.543,3.983 15.502,9.438 31.659,9.438 16.156,0 25.116,-5.456 31.658,-9.439 5.052,-3.076 7.835,-4.771 15.016,-4.771 7.183,0 9.966,1.694 15.02,4.771 6.543,3.983 15.503,9.438 31.661,9.438 16.157,0 25.117,-5.455 31.66,-9.438 5.054,-3.077 7.838,-4.771 15.021,-4.771 8.837,0 16,-7.163 16,-16 0,-8.837 -7.163,-16 -16,-16 z"
         id="path5035" />
      <path
         inkscape:connector-curvature="0"
         d="m 205.709,389.353 c -16.158,0 -25.118,5.455 -31.661,9.438 -5.054,3.077 -7.837,4.771 -15.02,4.771 -7.184,0 -9.967,-1.695 -15.021,-4.771 -6.543,-3.983 -15.503,-9.438 -31.66,-9.438 -16.156,0 -25.116,5.455 -31.658,9.439 -5.052,3.076 -7.835,4.771 -15.016,4.771 -7.181,0 -9.964,-1.694 -15.017,-4.771 -6.543,-3.983 -15.502,-9.438 -31.659,-9.438 -8.837,0 -16,7.163 -16,16 0,8.837 7.163,16 16,16 7.182,0 9.964,1.694 15.017,4.771 6.543,3.983 15.502,9.438 31.659,9.438 16.156,0 25.116,-5.456 31.658,-9.439 5.052,-3.076 7.835,-4.771 15.016,-4.771 7.183,0 9.966,1.694 15.02,4.771 6.543,3.983 15.503,9.438 31.661,9.438 16.157,0 25.117,-5.455 31.66,-9.438 5.054,-3.077 7.838,-4.771 15.021,-4.771 8.837,0 16,-7.163 16,-16 0,-8.837 -7.163,-16 -16,-16 z"
         id="path5037" />
      <path
         inkscape:connector-curvature="0"
         d="m 205.709,449.91 c -16.158,0 -25.118,5.455 -31.661,9.438 -5.054,3.077 -7.837,4.771 -15.02,4.771 -7.184,0 -9.967,-1.694 -15.021,-4.771 -6.543,-3.983 -15.503,-9.438 -31.66,-9.438 -16.156,0 -25.116,5.456 -31.658,9.439 -5.052,3.076 -7.835,4.771 -15.016,4.771 -7.181,0 -9.964,-1.694 -15.017,-4.771 -6.543,-3.983 -15.502,-9.438 -31.659,-9.438 -8.837,0 -16,7.163 -16,16 0,8.837 7.163,16 16,16 7.182,0 9.964,1.694 15.017,4.771 6.543,3.983 15.502,9.438 31.659,9.438 16.156,0 25.116,-5.455 31.658,-9.439 5.052,-3.076 7.835,-4.771 15.016,-4.771 7.183,0 9.966,1.694 15.02,4.771 6.543,3.983 15.503,9.438 31.661,9.438 16.157,0 25.117,-5.455 31.66,-9.438 5.054,-3.076 7.838,-4.771 15.021,-4.771 8.837,0 16,-7.163 16,-16 0,-8.837 -7.163,-16 -16,-16 z"
         id="path5039" />
    </g>
    <g
       transform="matrix(0.1698475,0,0,0.1698475,77.613759,83.901453)"
       id="g5114">
      <g
         id="g5058">
	<path
   inkscape:connector-curvature="0"
   d="m 260.422,314.065 c -3.338,-0.517 -5.858,-0.875 -7.909,-1.164 -6.301,-0.895 -7.993,-1.135 -15.359,-3.428 -2.903,-0.904 -14.259,-12.358 -14.259,-34.775 0,-28.879 6.857,-54.382 9.803,-64.005 0.078,-0.251 0.27,-0.978 0.536,-1.962 0.487,-1.807 4.062,-12.719 4.062,-12.719 1.938,-5.551 3.944,-11.293 5.247,-17.191 l 0.07,-0.302 c 1.967,-8.54 8.424,-39.756 8.882,-82.935 0,-4.357 -3.622,-8.148 -5.785,-10.412 -0.396,-0.416 -0.747,-0.78 -1.009,-1.086 -2.083,-2.422 -4.825,-5.412 -8.001,-8.872 -2.092,-2.282 -4.396,-4.796 -6.879,-7.546 -3.972,-4.393 -8.401,-8.412 -12.686,-12.297 -5.269,-4.775 -10.714,-9.713 -15.189,-15.28 -6.688,-8.317 -12.871,-22.874 -11.752,-34.606 0.17,-1.77 -0.243,-3.299 -1.162,-4.309 -1.02,-1.123 -2.62,-1.473 -4.029,-0.916 -1.411,-0.557 -3.012,-0.207 -4.03,0.916 -0.918,1.01 -1.333,2.539 -1.161,4.309 1.117,11.732 -5.066,26.289 -11.752,34.606 -4.477,5.567 -9.922,10.505 -15.191,15.28 -4.283,3.885 -8.715,7.904 -12.685,12.297 -2.482,2.75 -4.789,5.264 -6.88,7.546 -3.177,3.46 -5.917,6.45 -8.002,8.872 -0.262,0.306 -0.61,0.67 -1.007,1.086 -2.163,2.264 -5.786,6.055 -5.786,10.434 0.459,43.157 6.916,74.373 8.883,82.913 l 0.069,0.302 c 1.303,5.898 3.31,11.641 5.246,17.191 0,0 3.574,10.912 4.061,12.719 0.267,0.984 0.46,1.711 0.538,1.962 2.945,9.623 9.801,35.126 9.801,64.005 0,22.418 -11.355,33.871 -14.257,34.775 -7.366,2.293 -9.059,2.533 -15.361,3.428 -2.051,0.289 -4.569,0.647 -7.907,1.164 -36.177,3.85 -40.083,21.809 -40.083,29.353 0,2.022 1.047,8.592 5.822,14.649 4.291,5.442 12.837,11.933 29.195,11.933 2.454,0 5.05,-0.146 7.718,-0.434 10.887,-1.17 21.859,-2.928 32.468,-4.627 3.854,-0.617 7.701,-1.233 11.555,-1.824 5.134,-0.787 14.387,-1.309 27.498,-1.549 0.614,-0.012 1.041,-0.021 1.248,-0.027 0.207,0.006 0.634,0.016 1.246,0.027 13.113,0.24 22.365,0.762 27.5,1.549 3.852,0.591 7.7,1.207 11.553,1.824 10.61,1.699 21.583,3.457 32.468,4.627 2.668,0.287 5.264,0.434 7.718,0.434 16.361,0 24.909,-6.488 29.197,-11.933 4.775,-6.056 5.82,-12.628 5.82,-14.649 -0.002,-7.544 -3.906,-25.503 -40.083,-29.353 z m -56.29,-147.029 c -0.539,0 -1.05,-0.117 -1.567,-0.362 -1.683,-0.671 -3.841,-3.886 -4.042,-5.134 8.382,-5.832 14.045,-16.91 14.045,-29.625 0,-18.777 -1.982,-34 -27.567,-34 -25.585,0 -27.567,15.223 -27.567,34 0,12.715 5.663,23.793 14.044,29.625 -0.197,1.245 -2.404,4.307 -4.041,5.134 -0.516,0.245 -1.026,0.362 -1.567,0.362 -5.387,0.002 -12.139,-11.797 -13.912,-16.492 -3.021,-7.977 -6.792,-21.688 -7.601,-41.697 l -0.033,-0.77 c -0.207,-4.215 6.142,-14.994 6.983,-16.838 1.156,-2.539 16.154,-25.4 20.608,-30.816 1.577,-1.915 9.566,-12.523 13.087,-17.205 3.52,4.682 11.508,15.29 13.084,17.205 4.457,5.416 19.451,28.277 20.609,30.816 0.842,1.844 7.191,12.623 6.985,16.838 l -0.033,0.77 c -0.81,20.01 -4.579,33.721 -7.603,41.697 -1.773,4.694 -8.523,16.492 -13.912,16.492 z"
   id="path5056" />

</g>
      <g
         id="g5060">
</g>
      <g
         id="g5062">
</g>
      <g
         id="g5064">
</g>
      <g
         id="g5066">
</g>
      <g
         id="g5068">
</g>
      <g
         id="g5070">
</g>
      <g
         id="g5072">
</g>
      <g
         id="g5074">
</g>
      <g
         id="g5076">
</g>
      <g
         id="g5078">
</g>
      <g
         id="g5080">
</g>
      <g
         id="g5082">
</g>
      <g
         id="g5084">
</g>
      <g
         id="g5086">
</g>
      <g
         id="g5088">
</g>
    </g>
  </g>
</svg>
