<svg id="Capa_1" enable-background="new 0 0 511.952 511.952" height="512" viewBox="0 0 511.952 511.952" width="512" xmlns="http://www.w3.org/2000/svg"><path d="m415.421 191.713h33.23v192.815c0 17.685-14.388 32.073-32.073 32.073h-58.655v-52.009c0-34.227-27.846-62.073-62.073-62.073s-62.073 27.846-62.073 62.073v19.937c0 34.227 27.846 62.073 62.073 62.073h32.073v3.277c0 17.685-14.388 32.073-32.073 32.073h-200.476c-17.685 0-32.073-14.388-32.073-32.073v-208.693h33.23v-55.383h-96.46v55.383h33.23v208.692c0 34.227 27.846 62.073 62.073 62.073h200.476c34.227 0 62.073-27.846 62.073-62.073v-3.277h58.655c34.228 0 62.073-27.846 62.073-62.073v-192.815h33.23v-55.383h-96.46zm-87.498 224.889h-32.073c-17.685 0-32.073-14.388-32.073-32.073v-19.937c0-17.685 14.388-32.073 32.073-32.073s32.073 14.388 32.073 32.073z"/><path d="m511.881 48.23c0-26.594-21.636-48.23-48.23-48.23s-48.23 21.636-48.23 48.23v58.1h96.46z"/><path d="m96.531 97.703c0-26.594-21.636-48.23-48.23-48.23s-48.23 21.636-48.23 48.23v58.1h96.46z"/></svg>