<svg width="76.171mm" height="105.82mm" version="1.1" viewBox="0 0 76.170792 105.81705" xmlns="http://www.w3.org/2000/svg">
<g transform="translate(-62.456 -85.341)">
<g transform="matrix(.26458 0 0 .26458 47.633 85.341)">
<circle cx="199.92" cy="36" r="36"/>
<path d="m338.48 28c-6.473-5.688-16.287-5.228-22.2 1.04-0.36 0.52-49 50.96-116.36 50.96s-116-50.44-116.36-50.96c-6.121-6.373-16.25-6.577-22.623-0.456-5.983 5.747-6.581 15.114-1.377 21.576 1.88 2.32 38.84 46.6 96.36 63.44v112.8l-31.68 154.4c-1.731 8.665 3.89 17.093 12.556 18.824 7.878 1.574 15.701-2.938 18.284-10.544l44.84-134.48 44.84 134.48c2.842 8.367 11.928 12.846 20.296 10.004 7.607-2.583 12.118-10.407 10.544-18.284l-31.68-154.4v-112.8c57.56-16.84 94.48-61.12 96.36-63.44 5.468-6.665 4.672-16.465-1.8-22.16z"/>
</g>
</g>
</svg>
