<?xml version="1.0" encoding="iso-8859-1"?>
<!-- Generator: Adobe Illustrator 19.0.0, SVG Export Plug-In . SVG Version: 6.00 Build 0)  -->
<svg version="1.1" id="Capa_1" xmlns="http://www.w3.org/2000/svg" xmlns:xlink="http://www.w3.org/1999/xlink" x="0px" y="0px"
	 viewBox="0 0 399.939 399.939" style="enable-background:new 0 0 399.939 399.939;" xml:space="preserve">
<g>
	<g>
		<g>
			<circle cx="199.924" cy="36" r="36"/>
			<path d="M338.484,28c-6.473-5.688-16.287-5.228-22.2,1.04c-0.36,0.52-49,50.96-116.36,50.96s-116-50.44-116.36-50.96
				c-6.121-6.373-16.25-6.577-22.623-0.456c-5.983,5.747-6.581,15.114-1.377,21.576c1.88,2.32,38.84,46.6,96.36,63.44v112.8
				l-31.68,154.4c-1.731,8.665,3.89,17.093,12.556,18.824c7.878,1.574,15.701-2.938,18.284-10.544l44.84-134.48l44.84,134.48
				c2.842,8.367,11.928,12.846,20.296,10.004c7.607-2.583,12.118-10.407,10.544-18.284l-31.68-154.4V113.6
				c57.56-16.84,94.48-61.12,96.36-63.44C345.752,43.495,344.956,33.695,338.484,28z"/>
		</g>
	</g>
</g>
<g>
</g>
<g>
</g>
<g>
</g>
<g>
</g>
<g>
</g>
<g>
</g>
<g>
</g>
<g>
</g>
<g>
</g>
<g>
</g>
<g>
</g>
<g>
</g>
<g>
</g>
<g>
</g>
<g>
</g>
</svg>
