<svg class = "commitmentIcon" width="512pt" height="512pt" version="1.1" viewBox="0 0 512 512" xmlns="http://www.w3.org/2000/svg">
<g>
<path d="m361 0c-24.813 0-45 20.187-45 45v46.851c-3.92-1.2-8.078-1.851-12.386-1.851h-5.229c-10.434 0-19.993 3.797-27.386 10.072-7.392-6.275-16.951-10.072-27.385-10.072h-5.228c-10.824 0-20.708 4.083-28.207 10.784-7.863-6.716-18.052-10.784-29.179-10.784-24.813 0-45 20.187-45 45v47.58c-17.459 6.192-30 22.865-30 42.42v64.434c0 38.355 16.539 76.269 47.829 109.64 7.849 8.371 12.171 19.301 12.171 30.777v82.147h210v-92.836c0-15.525 7.458-24.044 12.58-35.784 11.396-22.792 17.42-48.308 17.42-73.79v-264.59c0-24.813-20.187-45-45-45zm-75 132.39c0-6.83 5.557-12.386 12.386-12.386h5.229c6.829 0 12.386 5.556 12.386 12.386v95.228c0 6.83-5.557 12.386-12.386 12.386h-5.229c-6.829 0-12.386-5.556-12.386-12.386v-95.228zm-60 0c0-6.83 5.557-12.386 12.386-12.386h5.228c6.83 0 12.386 5.556 12.386 12.386v47.614h-30s-0.032-46.748-0.082-47.614zm-60 2.614c0-8.271 6.729-15 15-15s15 6.729 15 15v45h-30zm210 174.59c0 20.849-4.929 41.726-14.252 60.374-4.358 10.41-15.748 24.761-15.748 49.2v62.836h-150v-52.147c0-19.127-7.204-37.344-20.286-51.297-18.117-19.323-39.714-50.471-39.714-89.122v-64.434c0-8.271 6.729-15.1 15-15.1h102.43c-6.191 17.461-22.874 30.1-42.43 30.1h-30v30c41.355 0 75 33.645 75 75h30c0-33.818-16.071-63.954-40.977-83.171 6.304-3.223 12.089-7.319 17.209-12.116 7.46 12.158 20.874 20.287 36.154 20.287h5.229c23.37 0 42.385-19.014 42.385-42.386v-182.61c0-8.271 6.729-15 15-15s15 6.729 15 15v264.59z"/>
</g>
</svg>
