<?xml version="1.0" encoding="UTF-8" standalone="no"?>
<!-- Created with Inkscape (http://www.inkscape.org/) -->

<svg
   xmlns:dc="http://purl.org/dc/elements/1.1/"
   xmlns:cc="http://creativecommons.org/ns#"
   xmlns:rdf="http://www.w3.org/1999/02/22-rdf-syntax-ns#"
   xmlns:svg="http://www.w3.org/2000/svg"
   xmlns="http://www.w3.org/2000/svg"
   xmlns:sodipodi="http://sodipodi.sourceforge.net/DTD/sodipodi-0.dtd"
   xmlns:inkscape="http://www.inkscape.org/namespaces/inkscape"
   width="28.245327mm"
   height="43.609951mm"
   viewBox="0 0 28.245327 43.60995"
   version="1.1"
   id="svg8"
   inkscape:version="0.92.2 5c3e80d, 2017-08-06"
   sodipodi:docname="icon_bet.svg">
  <defs
     id="defs2" />
  <sodipodi:namedview
     id="base"
     pagecolor="#ffffff"
     bordercolor="#666666"
     borderopacity="1.0"
     inkscape:pageopacity="0.0"
     inkscape:pageshadow="2"
     inkscape:zoom="0.5"
     inkscape:cx="-191.9342"
     inkscape:cy="-169.43362"
     inkscape:document-units="mm"
     inkscape:current-layer="layer1"
     showgrid="false"
     fit-margin-top="0"
     fit-margin-left="0"
     fit-margin-right="0"
     fit-margin-bottom="0"
     inkscape:window-width="1440"
     inkscape:window-height="855"
     inkscape:window-x="0"
     inkscape:window-y="1"
     inkscape:window-maximized="1" />
  <metadata
     id="metadata5">
    <rdf:RDF>
      <cc:Work
         rdf:about="">
        <dc:format>image/svg+xml</dc:format>
        <dc:type
           rdf:resource="http://purl.org/dc/dcmitype/StillImage" />
        <dc:title></dc:title>
      </cc:Work>
    </rdf:RDF>
  </metadata>
  <g
     inkscape:label="Layer 1"
     inkscape:groupmode="layer"
     id="layer1"
     transform="translate(-165.68735,-39.227406)">
    <g
       id="g348">
      <g
         transform="matrix(0.0738655,0,0,0.0738655,8.1893833,37.943846)"
         id="g74">
        <path
           inkscape:connector-curvature="0"
           d="m 370.58984,250.97266 c -5.52343,0 -10,4.47656 -10,10 v 88.78906 c -0.0195,16.5625 -13.4375,29.98437 -30,30 H 50 c -16.5625,-0.0156 -29.980469,-13.4375 -30,-30 V 89.171875 c 0.01953,-16.558594 13.4375,-29.980469 30,-30 h 88.78906 c 5.52344,0 10,-4.476563 10,-10 0,-5.519531 -4.47656,-10 -10,-10 H 50 c -27.601562,0.03125 -49.96875,22.398437 -50,50 V 349.76562 c 0.03125,27.60157 22.398438,49.96875 50,50 h 280.58984 c 27.60157,-0.0312 49.96875,-22.39843 50,-50 v -88.79296 c 0,-5.52344 -4.47656,-10 -10,-10 z m 0,0"
           id="path60" />
        <path
           inkscape:connector-curvature="0"
           d="m 376.62891,13.441406 c -17.57422,-17.574218 -46.06641,-17.574218 -63.64063,0 L 134.58203,191.84766 c -1.22266,1.22265 -2.10547,2.73828 -2.56641,4.40234 l -23.46093,84.69922 c -0.96485,3.47265 0.0156,7.1914 2.5625,9.74219 2.55078,2.54687 6.26953,3.52734 9.74218,2.5664 l 84.69922,-23.46484 c 1.66407,-0.46094 3.17969,-1.34375 4.40235,-2.56641 L 388.36328,88.816406 c 17.54688,-17.585937 17.54688,-46.054687 0,-63.640625 z M 156.37109,198.34766 302.38281,52.332031 349.47266,99.421875 203.45703,245.4375 Z m -9.40625,18.875 37.6211,37.625 -52.03907,14.41796 z M 374.22266,74.675781 363.61719,85.28125 316.52344,38.1875 327.13281,27.582031 c 9.76172,-9.761719 25.58985,-9.761719 35.35156,0 l 11.73829,11.734375 c 9.74609,9.773438 9.74609,25.589844 0,35.359375 z m 0,0"
           id="path62" />
      </g>
      <text
         id="text78"
         y="82.806351"
         x="11.582754"
         style="font-style:normal;font-weight:normal;font-size:10.58333302px;line-height:1.25;font-family:sans-serif;letter-spacing:0px;word-spacing:0px;fill:#000000;fill-opacity:1;stroke:none;stroke-width:0.26458332"
         xml:space="preserve"><tspan
           style="font-style:normal;font-variant:normal;font-weight:normal;font-stretch:normal;font-size:10.58333302px;font-family:Calibri;-inkscape-font-specification:Calibri;stroke-width:0.26458332"
           y="82.806351"
           x="11.582754"
           id="tspan76"
           sodipodi:role="line">PLAN</tspan></text>
    </g>
    <g
       id="g341"
       transform="translate(-0.43658298)">
      <g
         transform="matrix(0.08300223,0,0,0.08300223,57.918714,39.911412)"
         id="g131">
        <path
           inkscape:connector-curvature="0"
           d="m 337.222,22.952 c -15.912,-8.568 -33.66,7.956 -44.064,17.748 -23.867,23.256 -44.063,50.184 -66.708,74.664 -25.092,26.928 -48.348,53.856 -74.052,80.173 -14.688,14.688 -30.6,30.6 -40.392,48.96 C 89.974,223.076 71.002,199.82 46.522,180.849 28.774,167.385 -0.602,157.593 0.01,190.029 c 1.224,42.229 38.556,87.517 66.096,116.28 11.628,12.24 26.928,25.092 44.676,25.704 21.42,1.224 43.452,-24.48 56.304,-38.556 22.645,-24.48 41.005,-52.021 61.812,-77.112 26.928,-33.048 54.468,-65.485 80.784,-99.145 16.524,-20.808 68.544,-72.217 27.54,-94.248 z M 26.937,187.581 c -0.612,0 -1.224,0 -2.448,0.611 -2.448,-0.611 -4.284,-1.224 -6.732,-2.448 v 0 c 1.836,-1.224 4.896,-0.612 9.18,1.837 z"
           id="path129" />
      </g>
      <text
         id="text165"
         y="82.739166"
         x="54.541073"
         style="font-style:normal;font-variant:normal;font-weight:normal;font-stretch:normal;font-size:10.58333302px;line-height:1.25;font-family:calibri;-inkscape-font-specification:calibri;letter-spacing:0px;word-spacing:0px;fill:#000000;fill-opacity:1;stroke:none;stroke-width:0.26458332"
         xml:space="preserve"><tspan
           style="font-style:normal;font-variant:normal;font-weight:normal;font-stretch:normal;font-size:10.58333302px;font-family:calibri;-inkscape-font-specification:calibri;stroke-width:0.26458332"
           y="82.739166"
           x="54.541073"
           id="tspan163"
           sodipodi:role="line">RECORD</tspan></text>
    </g>
    <g
       id="g335"
       transform="translate(-2.0750532)">
      <text
         id="text169"
         y="82.687492"
         x="107.42087"
         style="font-style:normal;font-weight:normal;font-size:10.58333302px;line-height:1.25;font-family:sans-serif;letter-spacing:0px;word-spacing:0px;fill:#000000;fill-opacity:1;stroke:none;stroke-width:0.26458332"
         xml:space="preserve"><tspan
           style="font-size:10.58333302px;stroke-width:0.26458332"
           y="82.687492"
           x="107.42087"
           id="tspan167"
           sodipodi:role="line">PROFILE</tspan></text>
      <g
         transform="matrix(0.08617857,0,0,0.08617857,114.45712,37.310234)"
         id="g238">
        <path
           inkscape:connector-curvature="0"
           d="m 175,171.173 c 38.914,0 70.463,-38.318 70.463,-85.586 C 245.463,38.318 235.105,0 175,0 c -60.105,0 -70.465,38.318 -70.465,85.587 0,47.268 31.549,85.586 70.465,85.586 z"
           id="path230" />
        <path
           inkscape:connector-curvature="0"
           d="m 41.909,301.853 c -0.012,-2.882 -0.024,-0.812 0,0 z"
           id="path232" />
        <path
           inkscape:connector-curvature="0"
           d="m 308.085,304.104 c 0.038,-0.789 0.013,-5.474 0,0 z"
           id="path234" />
        <path
           inkscape:connector-curvature="0"
           d="M 307.935,298.397 C 306.63,216.055 295.876,192.592 213.583,177.74 c 0,0 -11.584,14.761 -38.584,14.761 -27,0 -38.586,-14.761 -38.586,-14.761 -81.395,14.69 -92.803,37.805 -94.303,117.982 -0.123,6.547 -0.18,6.891 -0.202,6.131 0.005,1.424 0.011,4.058 0.011,8.651 0,0 19.592,39.496 133.08,39.496 113.486,0 133.08,-39.496 133.08,-39.496 0,-2.951 0.002,-5.003 0.005,-6.399 -0.022,0.47 -0.066,-0.441 -0.149,-5.708 z"
           id="path236" />
      </g>
    </g>
    <g
       id="g326"
       transform="translate(-8.90035e-6)">
      <text
         id="text173"
         y="82.837357"
         x="169.06648"
         style="font-style:normal;font-weight:normal;font-size:10.58333302px;line-height:1.25;font-family:sans-serif;letter-spacing:0px;word-spacing:0px;fill:#000000;fill-opacity:1;stroke:none;stroke-width:0.26458332"
         xml:space="preserve"><tspan
           style="stroke-width:0.26458332"
           y="82.837357"
           x="169.06648"
           id="tspan171"
           sodipodi:role="line">BET</tspan></text>
      <g
         transform="matrix(0.1327605,0,0,0.1327605,165.68736,39.227406)"
         id="g308">
        <path
           inkscape:connector-curvature="0"
           d="M 106.377,0 C 47.721,0 0,47.721 0,106.377 c 0,58.656 47.721,106.377 106.377,106.377 58.656,0 106.377,-47.721 106.377,-106.377 C 212.754,47.721 165.034,0 106.377,0 Z m 0,198.755 C 55.44,198.755 14,157.314 14,106.377 14,55.44 55.44,14 106.377,14 c 50.937,0 92.377,41.44 92.377,92.377 0,50.937 -41.44,92.378 -92.377,92.378 z"
           id="path304" />
        <path
           inkscape:connector-curvature="0"
           d="M 113.377,100.096 V 60.352 c 3.961,1.471 7.417,4.17 9.82,7.82 2.127,3.229 6.468,4.123 9.696,1.997 3.229,-2.126 4.123,-6.467 1.996,-9.696 -5.029,-7.636 -12.778,-12.82 -21.512,-14.647 v -11.12 c 0,-3.866 -3.134,-7 -7,-7 -3.866,0 -7,3.134 -7,7 v 11.099 c -15.493,3.23 -27.168,16.989 -27.168,33.426 0,16.437 11.676,30.198 27.168,33.428 v 39.744 c -3.961,-1.471 -7.417,-4.17 -9.82,-7.82 -2.127,-3.229 -6.468,-4.124 -9.696,-1.997 -3.229,2.126 -4.123,6.467 -1.996,9.696 5.029,7.636 12.778,12.82 21.512,14.647 v 11.119 c 0,3.866 3.134,7 7,7 3.866,0 7,-3.134 7,-7 V 166.95 c 15.493,-3.23 27.168,-16.989 27.168,-33.426 0,-16.437 -11.675,-30.198 -27.168,-33.428 z M 86.209,79.231 c 0,-8.653 5.494,-16.027 13.168,-18.874 V 98.105 C 91.703,95.258 86.209,87.884 86.209,79.231 Z m 27.168,73.166 v -37.748 c 7.674,2.847 13.168,10.221 13.168,18.874 0,8.653 -5.493,16.027 -13.168,18.874 z"
           id="path306" />
      </g>
    </g>
    <g
       id="g508"
       transform="matrix(0.08582369,-0.02299639,0.02299639,0.08582369,5.2595176,123.58715)">
      <path
         id="path483"
         d="m 291.1,264.612 c 36.196,-0.021 66.005,-29.383 66.005,-65.986 -0.021,-36.346 -29.638,-65.901 -66.031,-65.908 L 269.803,47.585 275.626,32 h 15.434 c 8.837,0 16,-7.163 16,-16 0,-8.837 -7.163,-16 -16,-16 h -26.536 c -6.677,0 -12.651,4.146 -14.988,10.4 L 241.204,32.702 147.359,51.509 146.47,36.3 c -0.494,-8.459 -7.499,-15.066 -15.973,-15.066 h -25.153 c -8.837,0 -16,7.163 -16,16 0,8.837 7.163,16 16,16 h 10.061 l 0.834,14.278 -33.125,66.838 c -41.401,-9.01 -80.142,22.549 -80.116,64.464 0.021,36.189 29.469,65.908 66.083,65.908 42.076,-0.025 73.809,-39.16 64.339,-80.617 58.009,-29.391 56.364,-27.917 59.362,-31.859 l 52.847,-69.409 14.388,57.587 c -20.778,11.077 -35.015,32.926 -35.001,58.281 0.021,36.192 29.472,65.907 66.084,65.907 z M 118.895,155.591 c -2.19,-2.518 -4.565,-4.87 -7.109,-7.032 l 22.685,-45.772 22.303,33.62 z m 62.053,-40.628 -21.987,-33.142 55.722,-11.167 z"
         inkscape:connector-curvature="0" />
      <path
         id="path485"
         d="m 432.701,294.118 c 30.244,0 54.85,-24.571 54.85,-54.774 0,-30.203 -24.605,-54.774 -54.85,-54.774 -30.245,0 -54.85,24.571 -54.85,54.774 0,30.203 24.606,54.774 54.85,54.774 z"
         inkscape:connector-curvature="0" />
      <path
         id="path487"
         d="m 508.489,334.639 c -2.211,-8.556 -10.938,-13.695 -19.495,-11.487 l -54.135,13.991 c -29.953,-44.867 -28.908,-44.941 -34.86,-47.421 l -37.968,-15.801 c -3.802,-1.583 -8.068,-1.638 -11.909,-0.155 l -69.806,26.945 c -8.244,3.183 -12.347,12.444 -9.165,20.688 3.193,8.272 12.468,12.336 20.688,9.165 l 63.82,-24.635 14.585,6.07 -107.466,171.147 c -4.699,7.483 -2.442,17.36 5.041,22.059 7.466,4.689 17.35,2.458 22.059,-5.041 l 49.153,-78.278 39.335,18.298 -33.36,46.488 c -5.152,7.179 -3.509,17.176 3.671,22.327 7.146,5.13 17.154,3.54 22.327,-3.671 l 44.62,-62.178 c 5.843,-8.139 2.84,-19.608 -6.251,-23.835 l -53.191,-24.743 38.075,-60.636 20.289,30.42 c 3.776,5.663 10.724,8.314 17.314,6.613 l 65.142,-16.836 c 8.556,-2.21 13.698,-10.939 11.487,-19.494 z"
         inkscape:connector-curvature="0" />
      <path
         id="path489"
         d="m 205.709,328.794 c -16.158,0 -25.118,5.455 -31.661,9.438 -5.054,3.077 -7.837,4.771 -15.02,4.771 -7.184,0 -9.967,-1.695 -15.021,-4.771 -6.543,-3.983 -15.503,-9.438 -31.66,-9.438 -16.156,0 -25.116,5.455 -31.658,9.439 -5.052,3.076 -7.835,4.771 -15.016,4.771 -7.181,0 -9.964,-1.694 -15.017,-4.771 -6.543,-3.983 -15.502,-9.438 -31.659,-9.438 -8.837,0 -16,7.163 -16,16 0,8.837 7.163,16 16,16 7.182,0 9.964,1.694 15.017,4.771 6.543,3.983 15.502,9.438 31.659,9.438 16.156,0 25.116,-5.456 31.658,-9.439 5.052,-3.076 7.835,-4.771 15.016,-4.771 7.183,0 9.966,1.694 15.02,4.771 6.543,3.983 15.503,9.438 31.661,9.438 16.157,0 25.117,-5.455 31.66,-9.438 5.054,-3.077 7.838,-4.771 15.021,-4.771 8.837,0 16,-7.163 16,-16 0,-8.837 -7.163,-16 -16,-16 z"
         inkscape:connector-curvature="0" />
      <path
         id="path491"
         d="m 205.709,389.353 c -16.158,0 -25.118,5.455 -31.661,9.438 -5.054,3.077 -7.837,4.771 -15.02,4.771 -7.184,0 -9.967,-1.695 -15.021,-4.771 -6.543,-3.983 -15.503,-9.438 -31.66,-9.438 -16.156,0 -25.116,5.455 -31.658,9.439 -5.052,3.076 -7.835,4.771 -15.016,4.771 -7.181,0 -9.964,-1.694 -15.017,-4.771 -6.543,-3.983 -15.502,-9.438 -31.659,-9.438 -8.837,0 -16,7.163 -16,16 0,8.837 7.163,16 16,16 7.182,0 9.964,1.694 15.017,4.771 6.543,3.983 15.502,9.438 31.659,9.438 16.156,0 25.116,-5.456 31.658,-9.439 5.052,-3.076 7.835,-4.771 15.016,-4.771 7.183,0 9.966,1.694 15.02,4.771 6.543,3.983 15.503,9.438 31.661,9.438 16.157,0 25.117,-5.455 31.66,-9.438 5.054,-3.077 7.838,-4.771 15.021,-4.771 8.837,0 16,-7.163 16,-16 0,-8.837 -7.163,-16 -16,-16 z"
         inkscape:connector-curvature="0" />
      <path
         id="path493"
         d="m 205.709,449.91 c -16.158,0 -25.118,5.455 -31.661,9.438 -5.054,3.077 -7.837,4.771 -15.02,4.771 -7.184,0 -9.967,-1.694 -15.021,-4.771 -6.543,-3.983 -15.503,-9.438 -31.66,-9.438 -16.156,0 -25.116,5.456 -31.658,9.439 -5.052,3.076 -7.835,4.771 -15.016,4.771 -7.181,0 -9.964,-1.694 -15.017,-4.771 -6.543,-3.983 -15.502,-9.438 -31.659,-9.438 -8.837,0 -16,7.163 -16,16 0,8.837 7.163,16 16,16 7.182,0 9.964,1.694 15.017,4.771 6.543,3.983 15.502,9.438 31.659,9.438 16.156,0 25.116,-5.455 31.658,-9.439 5.052,-3.076 7.835,-4.771 15.016,-4.771 7.183,0 9.966,1.694 15.02,4.771 6.543,3.983 15.503,9.438 31.661,9.438 16.157,0 25.117,-5.455 31.66,-9.438 5.054,-3.076 7.838,-4.771 15.021,-4.771 8.837,0 16,-7.163 16,-16 0,-8.837 -7.163,-16 -16,-16 z"
         inkscape:connector-curvature="0" />
    </g>
  </g>
</svg>
