<svg width="69.82mm" height="96.036mm" version="1.1" viewBox="0 0 69.820334 96.035897" >
<g transform="translate(67.339 -51.941)">
<path d="m-18.507 144.51h-6.0634q0.19809 1.0938 0.89572 1.602 0.70624 0.49954 1.5331 0.49954 1.2747 0 2.136-1.0594l1.0938 0.82682q-1.2316 1.5934-3.2987 1.5934-1.5847 0-2.6527-1.0852-1.068-1.0852-1.068-2.6958 0-1.5072 1.0766-2.6097 1.0852-1.111 2.6441-1.111 1.5331 0 2.6269 1.1283 1.0938 1.1197 1.0766 2.9111zm-5.9083-1.1972h4.3408q-0.72347-1.4642-2.136-1.4642-1.5417 0-2.2049 1.4642zm-8.6472-6.7179h1.49v7.1916l2.9456-3.1178h1.9379l-3.0747 3.2814 3.1092 3.8241h-1.8517l-3.0661-3.7552v3.7552h-1.49zm-4.048 1.7398q0-0.46508 0.34451-0.80098 0.34451-0.34451 0.81821-0.34451 0.46509 0 0.80098 0.34451 0.34451 0.3359 0.34451 0.80098 0 0.47371-0.34451 0.8096-0.3359 0.3359-0.80098 0.3359-0.4737 0-0.81821-0.3359-0.34451-0.33589-0.34451-0.8096zm0.42202 2.3341h1.4814v7.1055h-1.4814zm-9.6635-4.0738h1.4814v5.4777q0.95601-1.602 2.7388-1.602 1.378 0 2.3857 1.1024 1.0163 1.1024 1.0163 2.6183 0 1.5158-0.99908 2.6527-0.99046 1.1283-2.3168 1.1283-0.85266 0-1.6192-0.45648-0.76653-0.45647-1.2058-1.2402v1.4986h-1.4814zm6.0375 7.5964q0-0.97324-0.69763-1.6623-0.69763-0.69763-1.6881-0.69763-0.95601 0-1.6623 0.70624-0.69763 0.69763-0.69763 1.6536 0 0.99907 0.69763 1.6881 0.70624 0.68041 1.7312 0.68041 0.9474 0 1.6278-0.69763 0.68902-0.69763 0.68902-1.6709zm27.25-41.888c-0.31755 0-0.63142 0.0255-0.94306 0.0476l-1.8984-9.4194 0.61853-0.23113c1.4031-0.52448 2.117-2.0874 1.5915-3.4912-0.5254-1.4051-2.0976-2.1158-3.4901-1.5904l-6.8171 2.5494-0.30532-2.4815c0.82875-1.7355 0.7289-3.9175-0.62708-5.4568-2.7919-3.1692-6.1985-1.6454-7.2602-0.78612l-14.06 11.386 0.0021 0.0032c-0.4366 0.38056-0.80099 0.85308-1.034 1.4262-0.28822 0.70983-0.3415 1.4558-0.20574 2.1553-1.1185 0.08801-2.0067 0.99594-2.0067 2.1371 0 1.1951 0.96634 2.1626 2.1616 2.1679l-0.89412 2.0924c-1.1339-0.32426-2.325-0.50856-3.5604-0.50856-7.1561 1.3e-4 -12.98 5.8213-12.98 12.977 0 7.1565 5.8236 12.979 12.979 12.979 7.1565 0 12.977-5.8222 12.977-12.979 0-4.7657-2.5892-8.9277-6.4271-11.185l1.4414-3.3744h2.3372l7.9298 3.2179-4.2359 6.9421c-1.0914 1.7906-0.5254 4.1282 1.2648 5.2204 0.61709 0.37622 1.2994 0.55631 1.9732 0.55631 1.2798 0 2.5302-0.6484 3.2462-1.8204l3.8594-6.3267 2.5089 1.5142c-0.71654 1.6084-1.1234 3.3842-1.1234 5.2553 0 7.1565 5.8215 12.979 12.977 12.979 7.1564 0 12.978-5.8223 12.978-12.979 0-7.1563-5.8215-12.977-12.978-12.977zm-38.729 22.701c-5.3613 0-9.7243-4.3622-9.7243-9.7235s4.363-9.7225 9.7243-9.7225c0.78192 0 1.5324 0.11786 2.261 0.29256l-2.6936 6.3002c-1.5467 0.21297-2.7418 1.5257-2.7418 3.1298 0 1.7526 1.4218 3.1745 3.1742 3.1745 1.1533 0 2.153-0.62419 2.7084-1.547h6.849c-0.77955 4.586-4.7532 8.096-9.5573 8.096zm9.5574-11.351h-6.849c-0.0467-0.0773-0.09314-0.1547-0.14628-0.22784l2.6936-6.3012c2.2439 1.4504 3.8375 3.7945 4.3017 6.5291zm16.504-7.9202 1.0084-1.6528c0.58091-0.95147 0.71443-2.1097 0.36491-3.1682-0.35005-1.0584-1.1468-1.9094-2.1787-2.3289l-6.9358-2.8144 4.2678-3.4572 0.23731 1.9326c0.09945 0.8244 0.57433 1.5576 1.284 1.989 0.43029 0.26059 0.91806 0.39306 1.4073 0.39306 0.32032 0 0.64195-0.05722 0.9495-0.1718l6.334-2.368 1.7926 8.9045c-2.4031 0.81059-4.488 2.3034-6.0312 4.2508zm10.342 6.2429-4.9992-3.0177c1.0362-1.1994 2.3398-2.1467 3.8418-2.7275zm2.3264 13.028c-5.3614 0-9.7222-4.3622-9.7222-9.7235 0-1.2555 0.25849-2.4464 0.69299-3.5495l5.8592 3.537c0 4e-3 -0.0021 8e-3 -0.0021 0.0125 0 1.7526 1.4218 3.1745 3.1721 3.1745 1.7525 0 3.1726-1.422 3.1726-3.1745 0-1.3784-0.88413-2.5398-2.1126-2.9782l-1.3519-6.7145c0.09945-3e-3 0.19245-0.0297 0.29203-0.0297 5.3615 0 9.7228 4.3612 9.7228 9.7225-1.316e-4 5.3613-4.3614 9.7235-9.7229 9.7235zm-9.4693-42.662c2.7589 1.623 6.3123 0.69917 7.9313-2.059 1.6233-2.7589 0.70378-6.3108-2.0552-7.9328-2.7637-1.6222-6.3129-0.69943-7.9341 2.0587-1.6212 2.7602-0.70378 6.3108 2.0579 7.9331z" stroke="url(#a)" stroke-width=".26458" style="font-feature-settings:normal;font-variant-caps:normal;font-variant-ligatures:normal;font-variant-numeric:normal"/>
</g>
</svg>
