<svg width="69.85mm" height="96.043mm" version="1.1" viewBox="0 0 69.849994 96.043428" xmlns="http://www.w3.org/2000/svg">
<g stroke-width=".26458">
<path d="m38.592 95.845v-7.1056h1.4642v1.18q0.64596-0.71487 1.1713-1.0422 0.52538-0.3359 1.1713-0.3359 0.96463 0 1.645 0.63735 0.68902 0.63734 0.68902 1.5331v5.1332h-1.4986v-4.694q0-0.57706-0.37897-0.95602-0.37035-0.37897-0.9474-0.37897-0.74932 0-1.2919 0.63735-0.54261 0.62873-0.54261 1.5245v3.8672zm-7.6998-7.1056h1.4986v4.005q0 1.8518 1.6278 1.8518 0.72347 0 1.1455-0.49093 0.42203-0.49954 0.42203-1.3608v-4.005h1.4814v4.2461q0 1.335-0.86989 2.1963-0.8699 0.86128-2.2221 0.86128-1.378 0-2.2307-0.86128t-0.85267-2.2479zm-4.315 0v1.4642q0.49954-0.87851 0.97324-1.2661 0.48232-0.39619 1.2489-0.39619 0.21532 0 0.62012 0.10335l-0.45648 1.4986q-0.43064-0.0861-0.56845-0.0861-0.75792 0-1.2747 0.53399-0.50815 0.52538-0.50815 1.3178v3.936h-1.4986v-7.1056zm37.974-48.869c-3.2271 4.5203-7.5485 5.0438-12.199 2.2832-0.31655-0.18766-1.721-0.96143-2.0319-1.1462-7.4806-4.4409-14.952-2.6994-19.963 4.3179-2.1293 2.9846 2.7955 5.8136 4.901 2.8637 2.589-3.6256 5.8811-4.6747 9.4815-3.5263-1.8435 3.2-3.4553 6.3806-5.7296 10.899-2.2749 4.5188-7.2976 8.1274-12.124 5.305-3.4823-2.0354-6.6227 2.9673-3.1508 4.9964 6.5888 3.8508 14.314 1.4862 18.259-3.5194 0.13679 0.0731 0.28134 0.13909 0.43997 0.19456 3.2218 1.1225 7.4452 4.111 8.732 5.1701 1.2864 1.0591 3.4968 6.4547 4.8094 9.1657 1.5924 3.2895 6.7349 0.8936 5.1366-2.4098-1.4879-3.0758-3.9854-9.2147-5.9334-10.768-1.5626-1.2456-4.5964-3.5639-7.1694-4.8791 1.7408-3.3718 3.5533-6.7073 5.4614-9.9852 6.0821 1.8635 11.863-0.33164 15.981-6.0991 2.1311-2.9842-2.7926-5.8131-4.8997-2.863zm-9.245 1.618c3.1037 0 5.6199-2.5164 5.6199-5.6203s-2.5163-5.6201-5.6199-5.6201c-3.1044 0-5.621 2.5164-5.621 5.6201-1.4e-4 3.1038 2.5164 5.6203 5.621 5.6203zm-34.964 26.154h-19.433c-0.56829 0-1.029 0.46053-1.029 1.0288 0 0.5683 0.46067 1.029 1.029 1.029h19.433c0.56829 0 1.029-0.46067 1.029-1.029 0-0.56829-0.46067-1.0288-1.029-1.0288zm-12.378-11.959c0 0.56829 0.46067 1.0291 1.029 1.0291h21.627c0.56829 0 1.029-0.46081 1.029-1.0291s-0.46067-1.0288-1.029-1.0288h-21.627c-0.5683 0-1.029 0.46053-1.029 1.0288zm-5.8058-10.586h21.627c0.56829 0 1.029-0.46067 1.029-1.029 0-0.56829-0.46067-1.0288-1.029-1.0288h-21.627c-0.5683 0-1.029 0.46053-1.029 1.0288 0 0.56829 0.46067 1.029 1.029 1.029zm19.342-10.061h21.627c0.56829 0 1.0288-0.46067 1.0288-1.029s-0.46053-1.029-1.0288-1.029h-21.627c-0.5683 0-1.029 0.46067-1.029 1.029s0.46067 1.029 1.029 1.029z" style="font-feature-settings:normal;font-variant-caps:normal;font-variant-ligatures:normal;font-variant-numeric:normal"/>
</g>
</svg>
