<svg width="135.38mm" height="135.47mm" version="1.1" viewBox="0 0 135.38425 135.46654" xmlns="http://www.w3.org/2000/svg">
<g transform="translate(100.95 -81.1)">
<g transform="matrix(.26458 0 0 .26458 -101 81.1)">
<path d="m284.71 418.36-190.92-190.92c-11.715-11.715-30.71-11.715-42.425 0-11.717 11.717-11.717 30.712 0 42.427l190.92 190.92c11.715 11.715 30.71 11.715 42.426 0 11.717-11.715 11.717-30.71 0-42.426zm175.92-176.23-190.92-190.92c-11.715-11.715-30.711-11.715-42.426 0-11.717 11.717-11.717 30.71 0 42.427l190.92 190.92c11.715 11.715 30.71 11.715 42.426 0 11.717-11.715 11.717-30.71 0-42.427zm-190.92-63.639-91.066 91.376 63.64 63.64 91.066-91.378zm-69.853 282.29-148.49-148.49c-11.717-11.715-30.71-11.715-42.427 0-11.715 11.717-11.715 30.712 0 42.427l42.345 42.345-31.765 31.752c-2.813 2.813-4.395 6.621-4.395 10.605s1.582 7.793 4.395 10.605l42.612 42.598c2.929 2.931 6.767 4.396 10.605 4.396s7.676-1.465 10.605-4.395l31.752-31.752 42.338 42.339c11.715 11.715 30.71 11.715 42.426 0 11.717-11.717 11.717-30.712 0-42.427zm303.2-303.51-42.338-42.338 31.827-31.815c2.814-2.811 4.396-6.62 4.396-10.604s-1.582-7.793-4.395-10.605l-42.612-42.612c-5.625-5.625-15.586-5.625-21.211 0l-31.815 31.827-42.344-42.346c-11.715-11.715-30.71-11.715-42.426 0-11.717 11.715-11.717 30.71 0 42.426l148.49 148.49c11.717 11.715 30.712 11.715 42.427 0s11.715-30.71 0-42.426z"/>
</g>
</g>
</svg>
