<svg width="512" height="512" enable-background="new 0 0 512 512" version="1.1" viewBox="0 0 511.996 512" xmlns="http://www.w3.org/2000/svg">
<path d="m472 213v-105.69c0-16.056-10.854-26.43-27.653-26.43-14.348 0-24.347 14.822-24.347 28.124 0 11.046-8.954 20-20 20s-20-8.954-20-20v-27.351c0-14.695-11.664-26.65-26-26.65s-26 11.955-26 26.65v15.35c0 11.046-8.954 20-20 20s-20-8.954-20-20v-30.648c0-14.53-11.664-26.352-26-26.352s-26 11.821-26 26.352l-8e-3 31.23c-0.318 10.927-9.308 19.58-20.282 19.417-10.931-0.159-19.709-9.066-19.709-19.998v-13.431c-1.138-13.185-12.322-23.57-25.905-23.57-14.336 0-26 11.568-26 25.788v152.21c0 11.046-8.954 20-20 20s-20-8.954-20-20v-97.551c-4.996 1.989-7.902 5.267-10.204 9.372-0.319 0.569-53.892 84.179-53.888 108.69 4e-3 29.366 24.598 60.009 62.125 103.4 9.083 10.504 25.991 30.056 63.141 40.203 8.698 2.376 14.73 10.277 14.73 19.293v50.586h249v-68.897c0-6.057 2.745-11.788 7.465-15.584 22.583-18.165 35.535-44.96 35.535-73.518 0-11.046 8.954-20 20-20s20 8.954 20 20c0 37.459-15.557 72.741-43 98.233v79.766c0 11.046-8.954 20-20 20h-289c-11.046 0-20-8.954-20-20v-55.949c-33.81-12.251-53.36-30.891-68.128-47.969-36.959-42.74-71.868-83.109-71.868-129.57 0-19.321 10.08-46.521 30.816-83.156 13.027-23.016 25.897-41.936 28.685-45.982 9.804-16.929 24.768-26.992 44.59-30.042v-13.545c0-36.275 29.607-65.788 66-65.788 13.356 0 25.798 3.975 36.199 10.801 11.725-18.502 32.315-30.801 55.706-30.801 21.996 0 41.5 10.884 53.5 27.566 10.846-7.896 24.139-12.566 38.5-12.566 25.12 0 47.008 14.247 58.157 35.158 9.678-6.059 20.686-9.281 32.19-9.281 18.587 0 35.632 6.549 47.996 18.439 12.676 12.191 19.657 29.235 19.657 47.991v105.69c0 11.046-8.954 20-20 20s-20-8.954-20-20zm-205 179c0 3.146 2.714 5.014 6.21 5 2.456-0.01 5.05-0.995 6.761-2.699l94.412-108.01c8.197-9.476 1.579-24.29-11.001-24.29h-46.317l36.597-59h-70.987l-46.084 82.167c-7.527 13.424 2.247 29.833 17.72 29.833h40.177s-27.488 75-27.488 77z"/>
</svg>
