<svg width="137.28mm" height="200.74mm" version="1.1" viewBox="0 0 137.27745 200.7415" xmlns="http://www.w3.org/2000/svg" id = "logo">
<g transform="translate(144.04 -1.3416)">
<g transform="matrix(.11016 0 0 .11016 -143.91 -1.8324)"></g>
<g transform="matrix(.1544 0 0 .1544 -66.548 140.33)"></g>
<g transform="matrix(.12095 0 0 .12095 -150.03 63.169)"></g>
<g transform="matrix(.11241 0 0 .11241 -144.06 141.77)"></g>
<g id="XMLID_806_" transform="matrix(.1258 0 0 .1258 -73.025 66.825)"></g>
<g transform="matrix(.10621 0 0 .10621 -61.144 1.3416)">
<path d="m347 212h30c8.2852 0 15-6.7148 15-15s-6.7148-15-15-15h-30c-8.2852 0-15 6.7148-15 15s6.7148 15 15 15zm-211 150h-30c-8.2852 0-15 6.7148-15 15s6.7148 15 15 15h30c8.2852 0 15-6.7148 15-15s-6.7148-15-15-15zm91-90h30c8.2852 0 15-6.7148 15-15s-6.7148-15-15-15h-30c-8.2852 0-15 6.7148-15 15s6.7148 15 15 15zm0-60h30c8.2852 0 15-6.7148 15-15s-6.7148-15-15-15h-30c-8.2852 0-15 6.7148-15 15s6.7148 15 15 15zm-91 90h-30c-8.2852 0-15 6.7148-15 15s6.7148 15 15 15h30c8.2852 0 15-6.7148 15-15s-6.7148-15-15-15zm0-60h-30c-8.2852 0-15 6.7148-15 15s6.7148 15 15 15h30c8.2852 0 15-6.7148 15-15s-6.7148-15-15-15zm0-60h-30c-8.2852 0-15 6.7148-15 15s6.7148 15 15 15h30c8.2852 0 15-6.7148 15-15s-6.7148-15-15-15zm301 180h-45v-45c0-8.2852-6.7148-15-15-15s-15 6.7148-15 15v60c0 8.2852 6.7148 15 15 15h60c8.2852 0 15-6.7148 15-15s-6.7148-15-15-15zm45-69.75v-246.25c0-8.2852-6.7148-15-15-15h-76v-16c0-8.2852-6.7148-15-15-15s-15 6.7148-15 15v16h-60v-16c0-8.2852-6.7148-15-15-15s-15 6.7148-15 15v16h-60v-16c0-8.2852-6.7148-15-15-15s-15 6.7148-15 15v16h-60v-16c0-8.2852-6.7148-15-15-15-8.2852 0-15 6.7148-15 15v16h-76c-8.2852 0-15 6.7148-15 15v391c0 8.2852 6.7148 15 15 15h249.8c24.25 36.152 65.488 60 112.2 60 74.438 0 135-60.562 135-135 0-32.07-11.25-61.562-30-84.75zm-391-231.25v15c0 8.2852 6.7148 15 15 15 8.2852 0 15-6.7148 15-15v-15h60v15c0 8.2852 6.7148 15 15 15s15-6.7148 15-15v-15h60v15c0 8.2852 6.7148 15 15 15s15-6.7148 15-15v-15h60v15c0 8.2852 6.7148 15 15 15s15-6.7148 15-15v-15h61v60h-422v-60zm-61 361v-271h422v113.8c-21.465-14.395-47.27-22.805-75-22.805-47.398 0-89.164 24.559-113.26 61.613-2.0274-1.0234-4.3125-1.6133-6.7422-1.6133h-30c-8.2852 0-15 6.7148-15 15s6.7148 15 15 15h22.723c-3.3867 9.5547-5.7305 19.602-6.8828 30h-15.84c-8.2852 0-15 6.7148-15 15s6.7148 15 15 15h15.84c1.1524 10.398 3.4922 20.445 6.8828 30zm347 60c-57.898 0-105-47.102-105-105s47.102-105 105-105 105 47.102 105 105-47.102 105-105 105zm-477.02 550.82c-3.1151 0-6.171 1.2673-8.3741 3.4704-2.2031 2.2031-3.4704 5.259-3.4704 8.3741 0 3.1269 1.2662 6.1709 3.4704 8.374s5.259 3.4704 8.3741 3.4704 6.171-1.2673 8.3729-3.4704c2.2031-2.2031 3.4716-5.2589 3.4716-8.374s-1.2674-6.171-3.4716-8.3741c-2.2019-2.2031-5.2578-3.4704-8.3729-3.4704zm355.19 42.584c-6.5405 0-11.844 5.3027-11.844 11.844v10.973c0 6.5417 5.304 11.844 11.844 11.844s11.844-5.3028 11.844-11.844v-10.973c0-6.5418-5.304-11.844-11.844-11.844zm0.28901-207.65c6.5405 0 11.844-5.3028 11.844-11.844v-10.973c0-6.5417-5.304-11.844-11.844-11.844-6.5405 0-11.844 5.3028-11.844 11.844v10.973c0 6.5417 5.304 11.844 11.844 11.844zm-115.81 91.834h-10.973c-6.5405 0-11.844 5.3028-11.844 11.844 0 6.5417 5.304 11.844 11.844 11.844h10.973c6.5405 0 11.844-5.3028 11.844-11.844 0-6.5417-5.304-11.844-11.844-11.844zm242.31 0.289h-10.974c-6.5405 0-11.844 5.3028-11.844 11.844 0 6.5417 5.304 11.844 11.844 11.844h10.974c6.5405 0 11.844-5.3028 11.844-11.844 0-6.5417-5.304-11.844-11.844-11.844zm-51.717-79.974-58.666 58.665c-4.906-2.4258-10.424-3.7962-16.258-3.7962-5.8346 0-11.352 1.3704-16.258 3.7962l-26.256-26.256c-4.6265-4.6253-12.124-4.6253-16.752 0-4.6253 4.6253-4.6253 12.125 0 16.75l26.256 26.256c-2.4269 4.906-3.7962 10.424-3.7962 16.258 0 20.294 16.51 36.806 36.806 36.806 20.296 0 36.806-16.511 36.806-36.806 0-5.8334-1.3704-11.352-3.7962-16.258l56.944-56.944 1.721-1.721c4.6253-4.6253 4.6253-12.125 0-16.75-4.6253-4.6253-12.123-4.6253-16.75 0zm-74.924 104.79c-7.2322 0-13.117-5.8843-13.117-13.117s5.8844-13.117 13.117-13.117c7.2322 0 13.117 5.8843 13.117 13.117s-5.8843 13.117-13.117 13.117zm0-196.86c-101.32 0-183.74 82.426-183.74 183.74 0 101.32 82.427 183.74 183.74 183.74s183.74-82.426 183.74-183.74c0-101.32-82.427-183.74-183.74-183.74zm0 343.8c-88.254 0-160.05-71.8-160.05-160.05 0-88.253 71.799-160.05 160.05-160.05 88.254 0 160.05 71.8 160.05 160.05 0 88.253-71.799 160.05-160.05 160.05zm160.81-11.095c-3.1269 0-6.171 1.2673-8.3729 3.4704-2.2149 2.2031-3.4716 5.259-3.4716 8.3741s1.2567 6.1709 3.4716 8.374c2.2019 2.2149 5.2471 3.4705 8.3729 3.4705 3.1151 0 6.1591-1.2556 8.3741-3.4705 2.2031-2.2031 3.4704-5.2589 3.4704-8.374s-1.2662-6.171-3.4704-8.3741c-2.2149-2.2031-5.2601-3.4704-8.3741-3.4704zm77.268-172.76c-5.4449-54.767-29.912-106.4-68.897-145.38-33.316-33.315-74.094-54.724-117-64.243v-30.094c17.525-4.36 30.552-20.223 30.552-39.079 0-22.206-18.065-40.271-40.271-40.271h-85.28c-22.206 0-40.271 18.065-40.271 40.271 0 18.854 13.027 34.717 30.55 39.079v30.179c-42.776 9.5597-83.42 30.939-116.64 64.16-7.2701 7.2702-13.974 14.897-20.111 22.823-0.2973-0.0225-0.59459-0.045-0.89781-0.045h-84.405c-6.5405 0-11.844 5.3028-11.844 11.844s5.304 11.844 11.844 11.844h69.186c-8.6844 14.539-15.687 29.808-21.017 45.525h-128.91c-6.5405 0-11.844 5.3028-11.844 11.844 0 6.5417 5.304 11.844 11.844 11.844h122.22c-3.4136 14.984-5.3727 30.234-5.8784 45.527h-52.378c-6.5405 0-11.844 5.3028-11.844 11.844 0 6.5417 5.304 11.844 11.844 11.844h52.755c0.99968 15.331 3.4645 30.582 7.3957 45.527h-76.733c-6.5405 0-11.844 5.3028-11.844 11.844s5.304 11.844 11.844 11.844h84.293c11.619 30.738 29.778 59.547 54.483 84.252 39.023 39.023 90.707 63.496 145.53 68.912 7.8245 0.7722 15.655 1.1548 23.475 1.1548 46.22 0 91.852-13.376 130.57-38.59 5.4816-3.57 7.0321-10.908 3.4621-16.389-3.5699-5.4816-10.908-7.032-16.389-3.4621-84.756 55.192-198.26 43.258-269.9-28.376-84.051-84.051-84.051-220.81 0-304.86 84.05-84.05 220.81-84.05 304.86 0 71.54 71.541 83.538 184.95 28.529 269.67-3.5628 5.4864-2.0029 12.823 3.4823 16.384 5.4887 3.5628 12.823 2.0029 16.384-3.4834 29.391-45.264 42.621-99.932 37.253-153.94zm-297.48-278.8c0-9.144 7.4383-16.582 16.582-16.582h85.28c9.144 0 16.582 7.4383 16.582 16.582s-7.4383 16.582-16.582 16.582h-85.28c-9.1439 0-16.582-7.4395-16.582-16.582zm30.55 65.184v-24.913h57.343v24.87c-19.041-2.2647-38.305-2.2505-57.343 0.0426zm-705.82 1030.9-202.08-202.08c-12.4-12.4-32.505-12.4-44.904 0-12.402 12.402-12.402 32.507 0 44.907l202.08 202.08c12.4 12.4 32.505 12.4 44.905 0 12.402-12.4 12.402-32.505 0-44.905zm186.2-186.53-202.08-202.08c-12.4-12.4-32.506-12.4-44.905 0-12.402 12.402-12.402 32.505 0 44.907l202.08 202.08c12.4 12.4 32.505 12.4 44.905 0 12.402-12.4 12.402-32.505 0-44.907zm-202.08-67.358-96.388 96.716 67.359 67.359 96.388-96.718zm-73.935 298.79-157.17-157.17c-12.402-12.4-32.505-12.4-44.907 0-12.4 12.402-12.4 32.507 0 44.906l44.82 44.82-33.621 33.608c-2.9774 2.9774-4.6519 7.0079-4.6519 11.225 0 4.2168 1.6745 8.2484 4.6519 11.225l45.102 45.088c3.1002 3.1023 7.1625 4.6529 11.225 4.6529s8.1246-1.5506 11.225-4.6518l33.608-33.608 44.812 44.813c12.4 12.4 32.505 12.4 44.905 0 12.402-12.402 12.402-32.507 0-44.907zm320.92-321.24-44.812-44.812 33.687-33.674c2.9785-2.9753 4.6529-7.0069 4.6529-11.224 0-4.2168-1.6744-8.2484-4.6518-11.225l-45.102-45.102c-5.9537-5.9537-16.497-5.9537-22.451 0l-33.674 33.687-44.819-44.821c-12.4-12.4-32.505-12.4-44.905 0-12.402 12.4-12.402 32.505 0 44.905l157.17 157.17c12.402 12.4 32.507 12.4 44.907 0 12.4-12.4 12.4-32.505 0-44.905zm-177.51-906.59c-28.258 0-51.247 22.99-51.247 51.247v53.355c-4.4642-1.3666-9.1995-2.108-14.106-2.108h-5.955c-11.883 0-22.769 4.3241-31.188 11.47-8.4182-7.1462-19.304-11.47-31.187-11.47h-5.9538c-12.327 0-23.583 4.6498-32.123 12.281-8.9546-7.6484-20.558-12.281-33.23-12.281-28.258 0-51.247 22.99-51.247 51.247v54.186c-19.883 7.0516-34.165 26.039-34.165 48.309v73.38c0 43.68 18.835 86.858 54.469 124.86 8.9387 9.5332 13.861 21.981 13.861 35.05v93.552h239.15v-105.72c0-17.68 8.4934-27.382 14.327-40.752 12.978-25.956 19.838-55.015 19.838-84.034v-301.32c0-28.258-22.99-51.247-51.247-51.247zm-85.412 150.77c0-7.7782 6.3285-14.106 14.106-14.106h5.955c7.7771 0 14.106 6.3274 14.106 14.106v108.45c0 7.7782-6.3285 14.106-14.106 14.106h-5.955c-7.7771 0-14.106-6.3274-14.106-14.106v-108.45zm-68.33 0c0-7.7782 6.3285-14.106 14.106-14.106h5.9538c7.7782 0 14.106 6.3274 14.106 14.106v54.224h-34.165s-0.0364-53.238-0.0934-54.224zm-68.33 2.9769c0-9.4193 7.6632-17.082 17.082-17.082s17.082 7.6632 17.082 17.082v51.247h-34.165zm239.15 198.83c0 23.744-5.6133 47.519-16.231 68.756-4.963 11.855-17.934 28.199-17.934 56.03v71.56h-170.82v-59.387c0-21.782-8.2042-42.529-23.102-58.419-20.632-22.006-45.228-57.478-45.228-101.49v-73.38c0-9.4193 7.6632-17.196 17.082-17.196h116.65c-7.0505 19.885-26.05 34.279-48.321 34.279h-34.165v34.165c47.096 0 85.412 38.316 85.412 85.412h34.165c0-38.513-18.302-72.833-46.666-94.718 7.1792-3.6705 13.767-8.3351 19.598-13.798 8.4957 13.846 23.772 23.103 41.173 23.103h5.955c26.615 0 48.269-21.654 48.269-48.271v-207.97c0-9.4193 7.6632-17.082 17.082-17.082s17.082 7.6632 17.082 17.082v301.32zm849.87 414.67c-9.4102-8.269-23.677-7.6003-32.273 1.5119-0.52336 0.7559-71.234 74.084-169.16 74.084s-168.64-73.328-169.16-74.084c-8.8985-9.2648-23.624-9.5614-32.888-0.6629-8.6978 8.3547-9.5672 21.972-2.0018 31.366 2.7331 3.3727 56.464 67.745 140.08 92.226v163.98l-46.055 224.46c-2.5165 12.597 5.6551 24.849 18.253 27.366 11.453 2.2882 22.825-4.2712 26.581-15.328l65.187-195.5 65.187 195.5c4.1316 12.164 17.34 18.675 29.506 14.543 11.059-3.7551 17.617-15.129 15.328-26.581l-46.055-224.46v-163.98c83.678-24.481 137.35-88.854 140.08-92.226 7.9492-9.6893 6.792-23.936-2.6168-32.215zm-149.1 11.63a52.335 52.335 0 0 1 -52.335 52.335 52.335 52.335 0 0 1 -52.335 -52.335 52.335 52.335 0 0 1 52.335 -52.335 52.335 52.335 0 0 1 52.335 52.335zm-543.08-1336.7c-1.727-1.4988-4.0193-2.1761-6.2804-1.8515-145.64 20.727-293.69 23.719-440.05 8.8901-4.3315-0.4429-8.2024 2.7186-8.6422 7.0521-0.43978 4.3336 2.7186 8.2024 7.0522 8.6422 144.62 14.653 290.86 12.057 434.87-7.7097v151.68c-165.77 22.96-333.74 22.96-499.51 0v-151.68c12.141 1.6658 24.379 3.2206 36.496 4.6385 4.3367 0.51239 8.245-2.591 8.749-6.9173 0.50617-4.3263-2.591-8.2439-6.9173-8.7491-14.987-1.7519-30.163-3.7185-45.104-5.8458-2.2674-0.32258-4.5545 0.3537-6.2804 1.8515-1.726 1.4967-2.7176 3.6708-2.7176 5.9558v167.6c0 3.927 2.8887 7.2554 6.7752 7.8083 5.795 0.8246 11.593 1.616 17.393 2.3846v232.95c0 4.3553 3.5318 7.8871 7.8871 7.8871h31.569c4.3553 0 7.8871-3.5318 7.8871-7.8871v-227.29c64.503 6.8551 129.26 10.284 194.02 10.284s129.51-3.428 194.01-10.284v70.108c0 4.3553 3.5307 7.8871 7.8871 7.8871 4.3564 0 7.8871-3.5318 7.8871-7.8871v-71.854c5.2671-0.60575 10.532-1.2354 15.796-1.8878v223.04h-15.796v-123.01c0-4.3553-3.5307-7.8871-7.8871-7.8871-4.3564 0-7.8871 3.5318-7.8871 7.8871v130.9c0 4.3553 3.5307 7.8871 7.8871 7.8871h31.57c4.3564 0 7.8871-3.5318 7.8871-7.8871v-232.95c5.8012-0.76859 11.6-1.561 17.396-2.3856 3.8865-0.55285 6.7752-3.8813 6.7752-7.8083v-167.6c2e-3 -2.285-0.98952-4.4591-2.7165-5.9568zm-472.61 408.82h-15.795v-223.04c5.2629 0.65242 10.528 1.282 15.795 1.8878zm62.015-316.98-2.0994-0.25205c-5.3532-0.65034-10.049-5.9776-10.049-11.401-1e-3 -2.2498 0.7717-4.122 2.2342-5.4175 1.4957-1.3245 3.595-1.9012 5.9112-1.6191 6.3696 0.77378 12.842 1.5102 19.242 2.1886 4.3346 0.45742 8.2149-2.6802 8.6733-7.0127 0.45846-4.3315-2.6812-8.2149-7.0127-8.6733-6.3178-0.66901-12.71-1.3951-19-2.1606-6.8654-0.83394-13.352 1.1119-18.274 5.4724-4.8677 4.3138-7.5479 10.429-7.5479 17.223 0 13.547 10.509 25.433 23.924 27.06l2.1191 0.25516c5.4548 0.65553 10.063 5.7556 10.063 11.137 0 2.2881-0.83809 4.2931-2.3607 5.6426-1.5071 1.337-3.5743 1.9251-5.823 1.6544-6.2991-0.7551-12.684-1.5704-18.976-2.4219-4.3201-0.58396-8.2896 2.4416-8.8735 6.7576-0.585 4.317 2.4406 8.2896 6.7576 8.8735 6.3717 0.86194 12.837 1.6876 19.214 2.452 1.0072 0.12135 2.006 0.18048 2.9945 0.18048 5.6747 0 10.978-1.9728 15.176-5.6965 4.8719-4.3222 7.6672-10.68 7.6672-17.443 0-13.413-10.524-25.185-23.959-26.799zm140.93-25.296c-7.0397-0.0083-13.593 2.6429-18.521 7.5438-4.874 4.848-7.5583 11.317-7.5583 18.217v50.085c0 4.3553 3.5318 7.8871 7.8871 7.8871s7.8871-3.5318 7.8871-7.8871v-23.549c5.7245 0.0778 11.462 0.13173 17.193 0.13173 1.115 0 2.2207-0.0114 3.3347-0.0145v23.634c0 4.3553 3.5307 7.8871 7.8871 7.8871 4.3564 0 7.8871-3.5318 7.8871-7.8871v-50.085c-1e-3 -14.235-11.662-25.881-25.997-25.963zm10.223 36.646c-6.8322 0.0176-13.692-0.0197-20.528-0.11409v-10.771c0-2.6709 1.0331-5.1685 2.9084-7.0345 1.9292-1.9189 4.5088-2.9281 7.3094-2.953 5.684 0.0322 10.309 4.6022 10.309 10.188v10.685zm88.249-11.757v-2.3348c0-6.8011-2.6636-13.072-7.5002-17.66-4.8864-4.6354-11.364-6.9982-18.282-6.6207-6.5522 0.34747-13.181 0.64516-19.699 0.88891-4.2392 0.15662-7.5946 3.6396-7.5946 7.8819v68.192c0 4.3553 3.5307 7.8871 7.8871 7.8871 4.3564 0 7.8871-3.5318 7.8871-7.8871v-23.337c5.7774 0.0508 11.101 2.1502 15.1 5.9859 4.1438 3.9736 6.4267 9.4461 6.4267 15.406 0 4.3553 3.5307 7.8871 7.8871 7.8871 4.3564 0 7.8871-3.5318 7.8871-7.8871 0-10.299-4.0079-19.813-11.283-26.791-0.0114-0.0114-0.0249-0.0218-0.0373-0.0332 6.8105-4.8428 11.321-12.809 11.321-21.579zm-15.774 1e-3c0 5.4756-4.5814 10.343-10.007 10.63h-1e-3c-3.8129 0.20226-7.6652 0.38896-11.52 0.55699v-21.457c4.1168-0.17737 8.2512-0.37651 12.354-0.59433 2.5205-0.13899 4.8771 0.68664 6.5926 2.3151 1.6637 1.5787 2.5806 3.7859 2.5806 6.2151zm99.782-29.356c-0.58499-4.317-4.5607-7.3457-8.8746-6.7576-16.497 2.2342-33.267 4.1624-49.844 5.7276-4.3356 0.40971-7.5189 4.2578-7.1102 8.5935 0.38585 4.0846 3.8212 7.1455 7.8425 7.1455 0.24789 0 0.49994-0.0114 0.75199-0.0353 5.4756-0.51758 10.973-1.087 16.472-1.6814v59.393c-1e-3 4.3564 3.5297 7.8881 7.8861 7.8881 4.3564 0 7.8871-3.5318 7.8871-7.8871v-61.197c6.0958-0.7354 12.184-1.4978 18.23-2.3172 4.317-0.58396 7.3426-4.5566 6.7586-8.8725zm-227.02 3.4208c-16.624-0.68768-33.453-1.726-50.018-3.0827-4.3418-0.35266-8.1485 2.8752-8.5043 7.2171-0.35577 4.3408 2.8752 8.1485 7.2171 8.5043 5.9433 0.48646 11.924 0.91795 17.913 1.3214v60.815c1e-3 4.3553 3.5328 7.8871 7.8882 7.8871s7.8871-3.5318 7.8871-7.8871v-59.847c5.6664 0.31117 11.329 0.59952 16.967 0.83289 0.10994 4e-3 0.22093 6e-3 0.33087 6e-3 4.2049 0 7.6983-3.3202 7.8747-7.5614 0.17944-4.3502-3.203-8.0251-7.5552-8.2055z"/>
</g>
</g>
</svg>
