<?xml version="1.0" encoding="UTF-8" standalone="no"?>
<svg
   xmlns:dc="http://purl.org/dc/elements/1.1/"
   xmlns:cc="http://creativecommons.org/ns#"
   xmlns:rdf="http://www.w3.org/1999/02/22-rdf-syntax-ns#"
   xmlns:svg="http://www.w3.org/2000/svg"
   xmlns="http://www.w3.org/2000/svg"
   xmlns:sodipodi="http://sodipodi.sourceforge.net/DTD/sodipodi-0.dtd"
   xmlns:inkscape="http://www.inkscape.org/namespaces/inkscape"
   sodipodi:docname="appIconRounded2.svg"
   inkscape:version="1.0 (4035a4f, 2020-05-01)"
   id="svg8"
   version="1.1"
   viewBox="0 0 59.999996 59.999996"
   height="59.999996mm"
   width="59.999996mm">
  <defs
     id="defs2">
    <filter
       id="filter1509"
       inkscape:label="Drop Shadow"
       style="color-interpolation-filters:sRGB">
      <feFlood
         id="feFlood1499"
         result="flood"
         flood-color="rgb(0,0,0)"
         flood-opacity="0.498039" />
      <feComposite
         id="feComposite1501"
         result="composite1"
         operator="in"
         in2="SourceGraphic"
         in="flood" />
      <feGaussianBlur
         id="feGaussianBlur1503"
         result="blur"
         stdDeviation="3"
         in="composite1" />
      <feOffset
         id="feOffset1505"
         result="offset"
         dy="6"
         dx="6" />
      <feComposite
         id="feComposite1507"
         result="composite2"
         operator="over"
         in2="offset"
         in="SourceGraphic" />
    </filter>
    <filter
       style="color-interpolation-filters:sRGB"
       inkscape:label="Drop Shadow"
       id="filter999">
      <feFlood
         flood-opacity="0.498039"
         flood-color="rgb(173,168,173)"
         result="flood"
         id="feFlood989" />
      <feComposite
         in="flood"
         in2="SourceGraphic"
         operator="in"
         result="composite1"
         id="feComposite991" />
      <feGaussianBlur
         in="composite1"
         stdDeviation="0"
         result="blur"
         id="feGaussianBlur993" />
      <feOffset
         dx="6"
         dy="6"
         result="offset"
         id="feOffset995" />
      <feComposite
         in="SourceGraphic"
         in2="offset"
         operator="over"
         result="fbSourceGraphic"
         id="feComposite997" />
      <feColorMatrix
         result="fbSourceGraphicAlpha"
         in="fbSourceGraphic"
         values="0 0 0 -1 0 0 0 0 -1 0 0 0 0 -1 0 0 0 0 1 0"
         id="feColorMatrix1049" />
      <feFlood
         id="feFlood1051"
         flood-opacity="0.498039"
         flood-color="rgb(173,168,173)"
         result="flood"
         in="fbSourceGraphic" />
      <feComposite
         in2="fbSourceGraphic"
         id="feComposite1053"
         in="flood"
         operator="in"
         result="composite1" />
      <feGaussianBlur
         id="feGaussianBlur1055"
         in="composite1"
         stdDeviation="0"
         result="blur" />
      <feOffset
         id="feOffset1057"
         dx="50"
         dy="50"
         result="offset" />
      <feComposite
         in2="offset"
         id="feComposite1059"
         in="fbSourceGraphic"
         operator="over"
         result="composite2" />
    </filter>
  </defs>
  <sodipodi:namedview
     inkscape:window-maximized="0"
     inkscape:window-y="92"
     inkscape:window-x="38"
     inkscape:window-height="855"
     inkscape:window-width="1368"
     inkscape:snap-page="false"
     fit-margin-bottom="0"
     fit-margin-right="0"
     fit-margin-left="0"
     fit-margin-top="0"
     showgrid="false"
     inkscape:document-rotation="0"
     inkscape:current-layer="layer1"
     inkscape:document-units="mm"
     inkscape:cy="-38.979672"
     inkscape:cx="-163.57108"
     inkscape:zoom="0.14778637"
     inkscape:pageshadow="2"
     inkscape:pageopacity="0.64705882"
     borderopacity="1.0"
     bordercolor="#666666"
     pagecolor="#ffffff"
     id="base"
     inkscape:snap-nodes="true"
     inkscape:snap-smooth-nodes="true"
     inkscape:snap-others="false" />
  <metadata
     id="metadata5">
    <rdf:RDF>
      <cc:Work
         rdf:about="">
        <dc:format>image/svg+xml</dc:format>
        <dc:type
           rdf:resource="http://purl.org/dc/dcmitype/StillImage" />
        <dc:title></dc:title>
      </cc:Work>
    </rdf:RDF>
  </metadata>
  <g
     transform="translate(2127.8667,-284.97094)"
     id="layer1"
     inkscape:groupmode="layer"
     inkscape:label="Layer 1">
    <g
       transform="matrix(0.05555556,0,0,0.05555556,-1984.7865,294.00463)"
       id="g989">
      <path
         d="M -2335.444,-72.606454 A 150,150 0 0 0 -2485.4442,77.393702 V 377.39347 677.39376 a 150,150 0 0 0 150.0002,149.99962 h 299.9997 300.0004 a 150,150 0 0 0 149.9996,-149.99962 V 377.39347 77.393702 a 150,150 0 0 0 -149.9996,-150.000156 h -300.0004 z"
         style="fill:#746d7f;stroke-width:0.213141;filter:url(#filter999)"
         id="path879" />
      <path
         style="fill:#e2dbe2;fill-opacity:1;stroke-width:4.16919"
         id="Blood-4"
         d="m -2035.4443,644.22278 c -110.3547,0 -200.122,-89.77553 -200.122,-200.12202 0,-92.60214 64.4102,-161.16493 116.1834,-216.2526 36.0886,-38.41934 67.2618,-71.602 67.2618,-100.60725 0,-9.20974 7.4586,-16.67669 16.6768,-16.67669 9.2181,0 16.6768,7.46695 16.6768,16.67669 0,29.00525 31.1732,62.18791 67.2618,100.60725 51.7733,55.08767 116.1834,123.65046 116.1834,216.2526 0,110.34649 -89.7671,200.12202 -200.122,200.12202 z m 0,-465.1585 c -14.1836,23.23906 -35.9761,46.44079 -59.6407,71.61861 -50.2097,53.44921 -107.1277,114.03201 -107.1277,193.41787 0,91.96023 74.8166,166.76835 166.7684,166.76835 91.9518,0 166.7684,-74.80812 166.7684,-166.76835 0,-79.38586 -56.9181,-139.96866 -107.1278,-193.42199 -23.6644,-25.17796 -45.4569,-48.37543 -59.6406,-71.61449 z m 16.6768,381.77433 c 0,-9.20973 -7.4587,-16.67668 -16.6768,-16.67668 -55.1752,0 -100.061,-44.88579 -100.061,-100.06117 0,-9.20973 -7.4588,-16.67683 -16.6769,-16.67683 -9.2181,0 -16.6768,7.4671 -16.6768,16.67683 0,73.56575 59.849,133.41469 133.4147,133.41469 9.2181,0 16.6768,-7.46698 16.6768,-16.67684 z"
         fill="#000000" />
    </g>
  </g>
</svg>
