<?xml version="1.0" encoding="UTF-8" standalone="no"?>
<svg
   xmlns:dc="http://purl.org/dc/elements/1.1/"
   xmlns:cc="http://creativecommons.org/ns#"
   xmlns:rdf="http://www.w3.org/1999/02/22-rdf-syntax-ns#"
   xmlns:svg="http://www.w3.org/2000/svg"
   xmlns="http://www.w3.org/2000/svg"
   xmlns:sodipodi="http://sodipodi.sourceforge.net/DTD/sodipodi-0.dtd"
   xmlns:inkscape="http://www.inkscape.org/namespaces/inkscape"
   width="58mm"
   height="58mm"
   viewBox="0 0 58 58"
   version="1.1"
   id="svg8"
   inkscape:version="1.0 (4035a4f, 2020-05-01)"
   sodipodi:docname="appIconRounded.svg">
  <defs
     id="defs2">
    <filter
       style="color-interpolation-filters:sRGB"
       inkscape:label="Drop Shadow"
       id="filter1509">
      <feFlood
         flood-opacity="0.498039"
         flood-color="rgb(0,0,0)"
         result="flood"
         id="feFlood1499" />
      <feComposite
         in="flood"
         in2="SourceGraphic"
         operator="in"
         result="composite1"
         id="feComposite1501" />
      <feGaussianBlur
         in="composite1"
         stdDeviation="3"
         result="blur"
         id="feGaussianBlur1503" />
      <feOffset
         dx="6"
         dy="6"
         result="offset"
         id="feOffset1505" />
      <feComposite
         in="SourceGraphic"
         in2="offset"
         operator="over"
         result="composite2"
         id="feComposite1507" />
    </filter>
    <filter
       id="filter999"
       inkscape:label="Drop Shadow"
       style="color-interpolation-filters:sRGB;">
      <feFlood
         id="feFlood989"
         result="flood"
         flood-color="rgb(173,168,173)"
         flood-opacity="0.498039" />
      <feComposite
         id="feComposite991"
         result="composite1"
         operator="in"
         in2="SourceGraphic"
         in="flood" />
      <feGaussianBlur
         id="feGaussianBlur993"
         result="blur"
         stdDeviation="0"
         in="composite1" />
      <feOffset
         id="feOffset995"
         result="offset"
         dy="6"
         dx="6" />
      <feComposite
         id="feComposite997"
         result="fbSourceGraphic"
         operator="over"
         in2="offset"
         in="SourceGraphic" />
      <feColorMatrix
         id="feColorMatrix1049"
         values="0 0 0 -1 0 0 0 0 -1 0 0 0 0 -1 0 0 0 0 1 0"
         in="fbSourceGraphic"
         result="fbSourceGraphicAlpha" />
      <feFlood
         in="fbSourceGraphic"
         result="flood"
         flood-color="rgb(173,168,173)"
         flood-opacity="0.498039"
         id="feFlood1051" />
      <feComposite
         result="composite1"
         operator="in"
         in="flood"
         id="feComposite1053"
         in2="fbSourceGraphic" />
      <feGaussianBlur
         result="blur"
         stdDeviation="0"
         in="composite1"
         id="feGaussianBlur1055" />
      <feOffset
         result="offset"
         dy="50"
         dx="50"
         id="feOffset1057" />
      <feComposite
         result="composite2"
         operator="over"
         in="fbSourceGraphic"
         id="feComposite1059"
         in2="offset" />
    </filter>
  </defs>
  <sodipodi:namedview
     inkscape:snap-others="false"
     inkscape:snap-smooth-nodes="true"
     inkscape:snap-nodes="true"
     id="base"
     pagecolor="#ffffff"
     bordercolor="#666666"
     borderopacity="1.0"
     inkscape:pageopacity="0.64705882"
     inkscape:pageshadow="2"
     inkscape:zoom="0.042313526"
     inkscape:cx="-7564.1993"
     inkscape:cy="221.24668"
     inkscape:document-units="mm"
     inkscape:current-layer="layer1"
     inkscape:document-rotation="0"
     showgrid="false"
     fit-margin-top="0"
     fit-margin-left="0"
     fit-margin-right="0"
     fit-margin-bottom="0"
     inkscape:snap-page="false"
     inkscape:window-width="1368"
     inkscape:window-height="855"
     inkscape:window-x="38"
     inkscape:window-y="93"
     inkscape:window-maximized="0" />
  <metadata
     id="metadata5">
    <rdf:RDF>
      <cc:Work
         rdf:about="">
        <dc:format>image/svg+xml</dc:format>
        <dc:type
           rdf:resource="http://purl.org/dc/dcmitype/StillImage" />
        <dc:title></dc:title>
      </cc:Work>
    </rdf:RDF>
  </metadata>
  <g
     inkscape:label="Layer 1"
     inkscape:groupmode="layer"
     id="layer1"
     transform="translate(-127.24149,-221.12291)">
    <path
       d="M -2335.444,-72.606454 A 150,150 0 0 0 -2485.4442,77.393702 V 377.39347 677.39376 a 150,150 0 0 0 150.0002,149.99962 h 299.9997 300.0004 a 150,150 0 0 0 149.9996,-149.99962 V 377.39347 77.393702 a 150,150 0 0 0 -149.9996,-150.000156 h -300.0004 z"
       style="fill:#746d7f;stroke-width:0.213141;filter:url(#filter999)"
       id="path879" />
    <path
       style="fill:#e2dbe2;fill-opacity:1;stroke-width:4.16919"
       id="Blood-4"
       d="m -2035.4443,644.22278 c -110.3547,0 -200.122,-89.77553 -200.122,-200.12202 0,-92.60214 64.4102,-161.16493 116.1834,-216.2526 36.0886,-38.41934 67.2618,-71.602 67.2618,-100.60725 0,-9.20974 7.4586,-16.67669 16.6768,-16.67669 9.2181,0 16.6768,7.46695 16.6768,16.67669 0,29.00525 31.1732,62.18791 67.2618,100.60725 51.7733,55.08767 116.1834,123.65046 116.1834,216.2526 0,110.34649 -89.7671,200.12202 -200.122,200.12202 z m 0,-465.1585 c -14.1836,23.23906 -35.9761,46.44079 -59.6407,71.61861 -50.2097,53.44921 -107.1277,114.03201 -107.1277,193.41787 0,91.96023 74.8166,166.76835 166.7684,166.76835 91.9518,0 166.7684,-74.80812 166.7684,-166.76835 0,-79.38586 -56.9181,-139.96866 -107.1278,-193.42199 -23.6644,-25.17796 -45.4569,-48.37543 -59.6406,-71.61449 z m 16.6768,381.77433 c 0,-9.20973 -7.4587,-16.67668 -16.6768,-16.67668 -55.1752,0 -100.061,-44.88579 -100.061,-100.06117 0,-9.20973 -7.4588,-16.67683 -16.6769,-16.67683 -9.2181,0 -16.6768,7.4671 -16.6768,16.67683 0,73.56575 59.849,133.41469 133.4147,133.41469 9.2181,0 16.6768,-7.46698 16.6768,-16.67684 z"
       fill="#000000" />
  </g>
</svg>
