<svg id="Layer_1" enable-background="new 0 0 512 512" height="512" viewBox="0 0 512 512" width="512" xmlns="http://www.w3.org/2000/svg"><path d="m291.1 264.612c36.196-.021 66.005-29.383 66.005-65.986-.021-36.346-29.638-65.901-66.031-65.908l-21.271-85.133 5.823-15.585h15.434c8.837 0 16-7.163 16-16s-7.163-16-16-16h-26.536c-6.677 0-12.651 4.146-14.988 10.4l-8.332 22.302-93.845 18.807-.889-15.209c-.494-8.459-7.499-15.066-15.973-15.066h-25.153c-8.837 0-16 7.163-16 16s7.163 16 16 16h10.061l.834 14.278-33.125 66.838c-41.401-9.01-80.142 22.549-80.116 64.464.021 36.189 29.469 65.908 66.083 65.908 42.076-.025 73.809-39.16 64.339-80.617 58.009-29.391 56.364-27.917 59.362-31.859l52.847-69.409 14.388 57.587c-20.778 11.077-35.015 32.926-35.001 58.281.021 36.192 29.472 65.907 66.084 65.907zm-172.205-109.021c-2.19-2.518-4.565-4.87-7.109-7.032l22.685-45.772 22.303 33.62zm62.053-40.628-21.987-33.142 55.722-11.167z"/><path d="m432.701 294.118c30.244 0 54.85-24.571 54.85-54.774s-24.605-54.774-54.85-54.774-54.85 24.571-54.85 54.774 24.606 54.774 54.85 54.774z"/><path d="m508.489 334.639c-2.211-8.556-10.938-13.695-19.495-11.487l-54.135 13.991c-29.953-44.867-28.908-44.941-34.86-47.421l-37.968-15.801c-3.802-1.583-8.068-1.638-11.909-.155l-69.806 26.945c-8.244 3.183-12.347 12.444-9.165 20.688 3.193 8.272 12.468 12.336 20.688 9.165l63.82-24.635 14.585 6.07-107.466 171.147c-4.699 7.483-2.442 17.36 5.041 22.059 7.466 4.689 17.35 2.458 22.059-5.041l49.153-78.278 39.335 18.298-33.36 46.488c-5.152 7.179-3.509 17.176 3.671 22.327 7.146 5.13 17.154 3.54 22.327-3.671l44.62-62.178c5.843-8.139 2.84-19.608-6.251-23.835l-53.191-24.743 38.075-60.636 20.289 30.42c3.776 5.663 10.724 8.314 17.314 6.613l65.142-16.836c8.556-2.21 13.698-10.939 11.487-19.494z"/><path d="m205.709 328.794c-16.158 0-25.118 5.455-31.661 9.438-5.054 3.077-7.837 4.771-15.02 4.771-7.184 0-9.967-1.695-15.021-4.771-6.543-3.983-15.503-9.438-31.66-9.438-16.156 0-25.116 5.455-31.658 9.439-5.052 3.076-7.835 4.771-15.016 4.771s-9.964-1.694-15.017-4.771c-6.543-3.983-15.502-9.438-31.659-9.438-8.837 0-16 7.163-16 16s7.163 16 16 16c7.182 0 9.964 1.694 15.017 4.771 6.543 3.983 15.502 9.438 31.659 9.438 16.156 0 25.116-5.456 31.658-9.439 5.052-3.076 7.835-4.771 15.016-4.771 7.183 0 9.966 1.694 15.02 4.771 6.543 3.983 15.503 9.438 31.661 9.438 16.157 0 25.117-5.455 31.66-9.438 5.054-3.077 7.838-4.771 15.021-4.771 8.837 0 16-7.163 16-16s-7.163-16-16-16z"/><path d="m205.709 389.353c-16.158 0-25.118 5.455-31.661 9.438-5.054 3.077-7.837 4.771-15.02 4.771-7.184 0-9.967-1.695-15.021-4.771-6.543-3.983-15.503-9.438-31.66-9.438-16.156 0-25.116 5.455-31.658 9.439-5.052 3.076-7.835 4.771-15.016 4.771s-9.964-1.694-15.017-4.771c-6.543-3.983-15.502-9.438-31.659-9.438-8.837 0-16 7.163-16 16s7.163 16 16 16c7.182 0 9.964 1.694 15.017 4.771 6.543 3.983 15.502 9.438 31.659 9.438 16.156 0 25.116-5.456 31.658-9.439 5.052-3.076 7.835-4.771 15.016-4.771 7.183 0 9.966 1.694 15.02 4.771 6.543 3.983 15.503 9.438 31.661 9.438 16.157 0 25.117-5.455 31.66-9.438 5.054-3.077 7.838-4.771 15.021-4.771 8.837 0 16-7.163 16-16s-7.163-16-16-16z"/><path d="m205.709 449.91c-16.158 0-25.118 5.455-31.661 9.438-5.054 3.077-7.837 4.771-15.02 4.771-7.184 0-9.967-1.694-15.021-4.771-6.543-3.983-15.503-9.438-31.66-9.438-16.156 0-25.116 5.456-31.658 9.439-5.052 3.076-7.835 4.771-15.016 4.771s-9.964-1.694-15.017-4.771c-6.543-3.983-15.502-9.438-31.659-9.438-8.837 0-16 7.163-16 16s7.163 16 16 16c7.182 0 9.964 1.694 15.017 4.771 6.543 3.983 15.502 9.438 31.659 9.438 16.156 0 25.116-5.455 31.658-9.439 5.052-3.076 7.835-4.771 15.016-4.771 7.183 0 9.966 1.694 15.02 4.771 6.543 3.983 15.503 9.438 31.661 9.438 16.157 0 25.117-5.455 31.66-9.438 5.054-3.076 7.838-4.771 15.021-4.771 8.837 0 16-7.163 16-16s-7.163-16-16-16z"/></svg>