<?xml version="1.0" encoding="UTF-8" standalone="no"?>
<svg
   xmlns:dc="http://purl.org/dc/elements/1.1/"
   xmlns:cc="http://creativecommons.org/ns#"
   xmlns:rdf="http://www.w3.org/1999/02/22-rdf-syntax-ns#"
   xmlns:svg="http://www.w3.org/2000/svg"
   xmlns="http://www.w3.org/2000/svg"
   xmlns:sodipodi="http://sodipodi.sourceforge.net/DTD/sodipodi-0.dtd"
   xmlns:inkscape="http://www.inkscape.org/namespaces/inkscape"
   id="Layer_1"
   enable-background="new 0 0 128 128"
   height="24"
   viewBox="0 0 6.25 6.0000001"
   width="25"
   version="1.1"
   sodipodi:docname="whitedroplet.svg"
   inkscape:version="1.0 (4035a4f, 2020-05-01)">
  <metadata
     id="metadata70">
    <rdf:RDF>
      <cc:Work
         rdf:about="">
        <dc:format>image/svg+xml</dc:format>
        <dc:type
           rdf:resource="http://purl.org/dc/dcmitype/StillImage" />
        <dc:title></dc:title>
      </cc:Work>
    </rdf:RDF>
  </metadata>
  <defs
     id="defs68" />
  <sodipodi:namedview
     fit-margin-right="0"
     fit-margin-left="7"
     fit-margin-top="0"
     fit-margin-bottom="0"
     inkscape:document-rotation="0"
     pagecolor="#ffffff"
     bordercolor="#666666"
     borderopacity="1"
     objecttolerance="10"
     gridtolerance="10"
     guidetolerance="10"
     inkscape:pageopacity="0"
     inkscape:pageshadow="2"
     inkscape:window-width="1440"
     inkscape:window-height="855"
     id="namedview66"
     showgrid="false"
     inkscape:zoom="2.8682255"
     inkscape:cx="20.946591"
     inkscape:cy="59.484346"
     inkscape:window-x="0"
     inkscape:window-y="23"
     inkscape:window-maximized="0"
     inkscape:current-layer="Layer_1" />
  <path
     id="Blood"
     d="M 4,6.0000002 C 2.7592658,6.0000002 1.75,4.9906408 1.75,3.75 1.75,2.7088595 2.4741719,1.9380001 3.0562657,1.3186407 3.4620157,0.88668754 3.8125,0.51360939 3.8125,0.18750001 3.8125,0.08395312 3.8963595,0 4,0 c 0.1036404,0 0.1875001,0.08395312 0.1875001,0.18750001 0,0.32610938 0.3504843,0.69918753 0.7562344,1.13114069 C 5.5258282,1.9380001 6.25,2.7088595 6.25,3.75 6.25,4.9906408 5.2407345,6.0000002 4,6.0000002 Z M 4,0.77015626 C 3.8405312,1.0314375 3.5955158,1.2922969 3.3294531,1.575375 2.7649376,2.1763126 2.125,2.8574532 2.125,3.75 2.125,4.7839221 2.9661719,5.6250002 4,5.6250002 5.0338282,5.6250002 5.8750002,4.7839221 5.8750002,3.75 5.8750002,2.8574532 5.2350625,2.1763126 4.6705468,1.5753282 4.4044844,1.29225 4.1594687,1.0314375 4,0.77015626 Z M 4.1875001,5.0625002 c 0,-0.1035468 -0.08386,-0.1875 -0.1875001,-0.1875 -0.6203437,0 -1.125,-0.5046563 -1.125,-1.1250002 0,-0.1035468 -0.08386,-0.1874998 -0.1874999,-0.1874998 -0.1036404,0 -0.1875,0.083954 -0.1875,0.1874998 0,0.8271095 0.6728906,1.5000003 1.4999999,1.5000003 0.1036404,0 0.1875001,-0.083954 0.1875001,-0.1875001 z"
     fill="rgb(0,0,0)"
     style="fill:#ffffff;stroke-width:0.046875" />
</svg>
