<?xml version="1.0" encoding="UTF-8" standalone="no"?>
<svg
   xmlns:dc="http://purl.org/dc/elements/1.1/"
   xmlns:cc="http://creativecommons.org/ns#"
   xmlns:rdf="http://www.w3.org/1999/02/22-rdf-syntax-ns#"
   xmlns:svg="http://www.w3.org/2000/svg"
   xmlns="http://www.w3.org/2000/svg"
   xmlns:sodipodi="http://sodipodi.sourceforge.net/DTD/sodipodi-0.dtd"
   xmlns:inkscape="http://www.inkscape.org/namespaces/inkscape"
   width="60.652039mm"
   height="13.378698mm"
   viewBox="0 0 60.652042 13.378698"
   version="1.1"
   id="svg8"
   inkscape:export-filename="/Users/raffichilingaryan/Desktop/sweatbank_full_logo.png"
   inkscape:export-xdpi="96"
   inkscape:export-ydpi="96"
   inkscape:version="1.0 (4035a4f, 2020-05-01)"
   sodipodi:docname="logo.svg">
  <defs
     id="defs2" />
  <sodipodi:namedview
     id="base"
     pagecolor="#ffffff"
     bordercolor="#666666"
     borderopacity="1.0"
     inkscape:pageopacity="0.0"
     inkscape:pageshadow="2"
     inkscape:zoom="0.85170666"
     inkscape:cx="246.72088"
     inkscape:cy="156.06842"
     inkscape:document-units="mm"
     inkscape:current-layer="layer1"
     inkscape:document-rotation="0"
     showgrid="false"
     lock-margins="true"
     fit-margin-top="2"
     fit-margin-left="2"
     fit-margin-right="2"
     fit-margin-bottom="2"
     inkscape:window-width="1394"
     inkscape:window-height="855"
     inkscape:window-x="46"
     inkscape:window-y="92"
     inkscape:window-maximized="0" />
  <metadata
     id="metadata5">
    <rdf:RDF>
      <cc:Work
         rdf:about="">
        <dc:format>image/svg+xml</dc:format>
        <dc:type
           rdf:resource="http://purl.org/dc/dcmitype/StillImage" />
        <dc:title></dc:title>
      </cc:Work>
    </rdf:RDF>
  </metadata>
  <g
     inkscape:label="Layer 1"
     inkscape:groupmode="layer"
     id="layer1"
     transform="translate(-39.496799,-59.314492)">
    <g
       id="g864">
      <text
         id="text1252"
         y="69.925278"
         x="41.133541"
         style="font-style:normal;font-weight:normal;font-size:10.4782px;line-height:1.25;font-family:sans-serif;fill:#e2dbe2;fill-opacity:1;stroke:none;stroke-width:0.0982331"
         xml:space="preserve"><tspan
           style="font-style:normal;font-variant:normal;font-weight:normal;font-stretch:normal;font-size:10.4782px;font-family:Calibri;-inkscape-font-specification:'Calibri, Normal';font-variant-ligatures:normal;font-variant-caps:normal;font-variant-numeric:normal;font-variant-east-asian:normal;fill:#e2dbe2;fill-opacity:1;stroke-width:0.0982331"
           y="69.925278"
           x="41.133541"
           id="tspan1250"
           sodipodi:role="line">SweatBank</tspan></text>
      <path
         style="fill:#e2dbe2;fill-opacity:1;stroke-width:0.0732709"
         id="Blood"
         d="m 94.631826,70.69319 c -1.939413,0 -3.51701,-1.577745 -3.51701,-3.517013 0,-1.627422 1.131961,-2.832367 2.041838,-3.800497 0.63424,-0.675193 1.18209,-1.258358 1.18209,-1.768104 0,-0.161857 0.131082,-0.293084 0.293082,-0.293084 0.162001,0 0.293083,0.131227 0.293083,0.293084 0,0.509746 0.54785,1.092911 1.182086,1.768104 0.909881,0.96813 2.041842,2.173075 2.041842,3.800497 0,1.939268 -1.577597,3.517013 -3.517011,3.517013 z m 0,-8.174855 c -0.249268,0.408413 -0.632257,0.816167 -1.048144,1.258651 -0.8824,0.939335 -1.882699,2.004037 -1.882699,3.399191 0,1.616141 1.314849,2.930844 2.930843,2.930844 1.615995,0 2.930841,-1.314703 2.930841,-2.930844 0,-1.395154 -1.000297,-2.459856 -1.8827,-3.399264 -0.415883,-0.442484 -0.798876,-0.850165 -1.048141,-1.258578 z m 0.293083,6.709434 c 0,-0.161856 -0.131082,-0.293085 -0.293083,-0.293085 -0.969671,0 -1.758508,-0.788836 -1.758508,-1.758507 0,-0.161855 -0.131079,-0.293083 -0.293083,-0.293083 -0.162,0 -0.293084,0.131228 -0.293084,0.293083 0,1.292869 1.051811,2.344675 2.344675,2.344675 0.162001,0 0.293083,-0.131228 0.293083,-0.293083 z"
         fill="#000000" />
    </g>
  </g>
</svg>
